<svg xmlns="http://www.w3.org/2000/svg" xmlns:xlink="http://www.w3.org/1999/xlink" width="681" zoomAndPan="magnify" viewBox="0 0 510.75 148.499996" height="198" preserveAspectRatio="xMidYMid meet" version="1.0"><defs><g/><clipPath id="87686b3abb"><path d="M 0.730469 0 L 509.769531 0 L 509.769531 148 L 0.730469 148 Z M 0.730469 0 " clip-rule="nonzero"/></clipPath><clipPath id="5edff71996"><path d="M 0.734375 1.703125 L 509.019531 1.703125 L 509.019531 147.464844 L 0.734375 147.464844 Z M 0.734375 1.703125 " clip-rule="nonzero"/></clipPath><clipPath id="9c40d069da"><path d="M 29.136719 1.703125 L 480.941406 1.703125 C 488.476562 1.703125 495.699219 4.695312 501.027344 10.023438 C 506.351562 15.351562 509.34375 22.574219 509.34375 30.109375 L 509.34375 119.386719 C 509.34375 126.917969 506.351562 134.144531 501.027344 139.472656 C 495.699219 144.796875 488.476562 147.789062 480.941406 147.789062 L 29.136719 147.789062 C 21.605469 147.789062 14.378906 144.796875 9.054688 139.472656 C 3.726562 134.144531 0.734375 126.917969 0.734375 119.386719 L 0.734375 30.109375 C 0.734375 22.574219 3.726562 15.351562 9.054688 10.023438 C 14.378906 4.695312 21.605469 1.703125 29.136719 1.703125 Z M 29.136719 1.703125 " clip-rule="nonzero"/></clipPath><linearGradient x1="0.00000000000679756" gradientTransform="matrix(3.720366, 0, 0, 3.720366, -0.0000000000252894, 0.00000270832)" y1="26.266001" x2="182.7769" gradientUnits="userSpaceOnUse" y2="26.266001" id="ecaea60a2a"><stop stop-opacity="1" stop-color="rgb(91.398621%, 25.498962%, 20.399475%)" offset="0"/><stop stop-opacity="1" stop-color="rgb(90.631104%, 25.811768%, 21.276855%)" offset="0.00390625"/><stop stop-opacity="1" stop-color="rgb(89.863586%, 26.124573%, 22.155762%)" offset="0.0078125"/><stop stop-opacity="1" stop-color="rgb(89.096069%, 26.437378%, 23.033142%)" offset="0.0117188"/><stop stop-opacity="1" stop-color="rgb(88.328552%, 26.751709%, 23.912048%)" offset="0.015625"/><stop stop-opacity="1" stop-color="rgb(87.559509%, 27.064514%, 24.789429%)" offset="0.0195312"/><stop stop-opacity="1" stop-color="rgb(86.791992%, 27.377319%, 25.666809%)" offset="0.0234375"/><stop stop-opacity="1" stop-color="rgb(86.024475%, 27.690125%, 26.544189%)" offset="0.0273438"/><stop stop-opacity="1" stop-color="rgb(85.256958%, 28.00293%, 27.423096%)" offset="0.03125"/><stop stop-opacity="1" stop-color="rgb(84.487915%, 28.315735%, 28.300476%)" offset="0.0351563"/><stop stop-opacity="1" stop-color="rgb(83.720398%, 28.62854%, 29.179382%)" offset="0.0390625"/><stop stop-opacity="1" stop-color="rgb(82.952881%, 28.941345%, 30.056763%)" offset="0.0429688"/><stop stop-opacity="1" stop-color="rgb(82.185364%, 29.255676%, 30.935669%)" offset="0.046875"/><stop stop-opacity="1" stop-color="rgb(81.416321%, 29.568481%, 31.813049%)" offset="0.0507813"/><stop stop-opacity="1" stop-color="rgb(80.648804%, 29.881287%, 32.691956%)" offset="0.0546875"/><stop stop-opacity="1" stop-color="rgb(79.881287%, 30.194092%, 33.569336%)" offset="0.0585938"/><stop stop-opacity="1" stop-color="rgb(79.11377%, 30.506897%, 34.448242%)" offset="0.0625"/><stop stop-opacity="1" stop-color="rgb(78.344727%, 30.819702%, 35.325623%)" offset="0.0664062"/><stop stop-opacity="1" stop-color="rgb(77.577209%, 31.134033%, 36.204529%)" offset="0.0703125"/><stop stop-opacity="1" stop-color="rgb(76.809692%, 31.446838%, 37.081909%)" offset="0.0742188"/><stop stop-opacity="1" stop-color="rgb(76.042175%, 31.759644%, 37.960815%)" offset="0.078125"/><stop stop-opacity="1" stop-color="rgb(75.274658%, 32.072449%, 38.838196%)" offset="0.0820313"/><stop stop-opacity="1" stop-color="rgb(74.507141%, 32.385254%, 39.717102%)" offset="0.0859375"/><stop stop-opacity="1" stop-color="rgb(73.738098%, 32.698059%, 40.594482%)" offset="0.0898438"/><stop stop-opacity="1" stop-color="rgb(72.970581%, 33.010864%, 41.471863%)" offset="0.09375"/><stop stop-opacity="1" stop-color="rgb(72.203064%, 33.323669%, 42.349243%)" offset="0.0976563"/><stop stop-opacity="1" stop-color="rgb(71.435547%, 33.638%, 43.228149%)" offset="0.101563"/><stop stop-opacity="1" stop-color="rgb(70.666504%, 33.950806%, 44.10553%)" offset="0.105469"/><stop stop-opacity="1" stop-color="rgb(69.898987%, 34.263611%, 44.984436%)" offset="0.109375"/><stop stop-opacity="1" stop-color="rgb(69.13147%, 34.576416%, 45.861816%)" offset="0.113281"/><stop stop-opacity="1" stop-color="rgb(68.363953%, 34.889221%, 46.740723%)" offset="0.117188"/><stop stop-opacity="1" stop-color="rgb(67.59491%, 35.202026%, 47.618103%)" offset="0.121094"/><stop stop-opacity="1" stop-color="rgb(66.827393%, 35.514832%, 48.497009%)" offset="0.125"/><stop stop-opacity="1" stop-color="rgb(66.059875%, 35.827637%, 49.37439%)" offset="0.128906"/><stop stop-opacity="1" stop-color="rgb(65.292358%, 36.141968%, 50.253296%)" offset="0.132812"/><stop stop-opacity="1" stop-color="rgb(64.523315%, 36.454773%, 51.130676%)" offset="0.136719"/><stop stop-opacity="1" stop-color="rgb(63.755798%, 36.767578%, 52.009583%)" offset="0.140625"/><stop stop-opacity="1" stop-color="rgb(62.988281%, 37.080383%, 52.886963%)" offset="0.144531"/><stop stop-opacity="1" stop-color="rgb(62.220764%, 37.393188%, 53.765869%)" offset="0.148438"/><stop stop-opacity="1" stop-color="rgb(61.453247%, 37.705994%, 54.64325%)" offset="0.152344"/><stop stop-opacity="1" stop-color="rgb(60.68573%, 38.018799%, 55.52063%)" offset="0.15625"/><stop stop-opacity="1" stop-color="rgb(59.916687%, 38.331604%, 56.39801%)" offset="0.160156"/><stop stop-opacity="1" stop-color="rgb(59.14917%, 38.645935%, 57.276917%)" offset="0.164062"/><stop stop-opacity="1" stop-color="rgb(58.381653%, 38.95874%, 58.154297%)" offset="0.167969"/><stop stop-opacity="1" stop-color="rgb(57.614136%, 39.271545%, 59.033203%)" offset="0.171875"/><stop stop-opacity="1" stop-color="rgb(56.845093%, 39.584351%, 59.910583%)" offset="0.175781"/><stop stop-opacity="1" stop-color="rgb(56.077576%, 39.897156%, 60.78949%)" offset="0.179688"/><stop stop-opacity="1" stop-color="rgb(55.310059%, 40.209961%, 61.66687%)" offset="0.183594"/><stop stop-opacity="1" stop-color="rgb(54.542542%, 40.522766%, 62.545776%)" offset="0.1875"/><stop stop-opacity="1" stop-color="rgb(53.773499%, 40.835571%, 63.423157%)" offset="0.191406"/><stop stop-opacity="1" stop-color="rgb(53.005981%, 41.149902%, 64.302063%)" offset="0.195313"/><stop stop-opacity="1" stop-color="rgb(52.238464%, 41.462708%, 65.179443%)" offset="0.199219"/><stop stop-opacity="1" stop-color="rgb(51.470947%, 41.775513%, 66.05835%)" offset="0.203125"/><stop stop-opacity="1" stop-color="rgb(50.701904%, 42.088318%, 66.93573%)" offset="0.207031"/><stop stop-opacity="1" stop-color="rgb(49.934387%, 42.401123%, 67.814636%)" offset="0.210938"/><stop stop-opacity="1" stop-color="rgb(49.16687%, 42.713928%, 68.692017%)" offset="0.214844"/><stop stop-opacity="1" stop-color="rgb(48.399353%, 43.026733%, 69.569397%)" offset="0.21875"/><stop stop-opacity="1" stop-color="rgb(47.631836%, 43.339539%, 70.446777%)" offset="0.222656"/><stop stop-opacity="1" stop-color="rgb(46.864319%, 43.65387%, 71.325684%)" offset="0.226563"/><stop stop-opacity="1" stop-color="rgb(46.095276%, 43.966675%, 72.203064%)" offset="0.230469"/><stop stop-opacity="1" stop-color="rgb(45.327759%, 44.27948%, 73.08197%)" offset="0.234375"/><stop stop-opacity="1" stop-color="rgb(44.560242%, 44.592285%, 73.959351%)" offset="0.238281"/><stop stop-opacity="1" stop-color="rgb(43.792725%, 44.90509%, 74.838257%)" offset="0.242188"/><stop stop-opacity="1" stop-color="rgb(43.023682%, 45.217896%, 75.715637%)" offset="0.246094"/><stop stop-opacity="1" stop-color="rgb(42.256165%, 45.530701%, 76.594543%)" offset="0.25"/><stop stop-opacity="1" stop-color="rgb(41.488647%, 45.843506%, 77.471924%)" offset="0.253906"/><stop stop-opacity="1" stop-color="rgb(40.72113%, 46.157837%, 78.35083%)" offset="0.257812"/><stop stop-opacity="1" stop-color="rgb(39.952087%, 46.470642%, 79.22821%)" offset="0.261719"/><stop stop-opacity="1" stop-color="rgb(39.18457%, 46.783447%, 80.107117%)" offset="0.265625"/><stop stop-opacity="1" stop-color="rgb(38.417053%, 47.096252%, 80.984497%)" offset="0.269531"/><stop stop-opacity="1" stop-color="rgb(37.649536%, 47.409058%, 81.863403%)" offset="0.273438"/><stop stop-opacity="1" stop-color="rgb(36.880493%, 47.721863%, 82.740784%)" offset="0.277344"/><stop stop-opacity="1" stop-color="rgb(36.112976%, 48.036194%, 83.618164%)" offset="0.28125"/><stop stop-opacity="1" stop-color="rgb(35.345459%, 48.348999%, 84.495544%)" offset="0.285156"/><stop stop-opacity="1" stop-color="rgb(34.577942%, 48.661804%, 85.374451%)" offset="0.289062"/><stop stop-opacity="1" stop-color="rgb(33.810425%, 48.974609%, 86.251831%)" offset="0.292969"/><stop stop-opacity="1" stop-color="rgb(33.042908%, 49.287415%, 87.130737%)" offset="0.296875"/><stop stop-opacity="1" stop-color="rgb(32.273865%, 49.60022%, 88.008118%)" offset="0.300781"/><stop stop-opacity="1" stop-color="rgb(31.506348%, 49.913025%, 88.887024%)" offset="0.304688"/><stop stop-opacity="1" stop-color="rgb(30.738831%, 50.22583%, 89.764404%)" offset="0.308594"/><stop stop-opacity="1" stop-color="rgb(29.971313%, 50.540161%, 90.643311%)" offset="0.3125"/><stop stop-opacity="1" stop-color="rgb(29.202271%, 50.852966%, 91.520691%)" offset="0.316406"/><stop stop-opacity="1" stop-color="rgb(28.434753%, 51.165771%, 92.399597%)" offset="0.320312"/><stop stop-opacity="1" stop-color="rgb(27.667236%, 51.478577%, 93.276978%)" offset="0.324219"/><stop stop-opacity="1" stop-color="rgb(26.899719%, 51.791382%, 94.155884%)" offset="0.328125"/><stop stop-opacity="1" stop-color="rgb(26.321411%, 52.030945%, 94.477844%)" offset="0.332031"/><stop stop-opacity="1" stop-color="rgb(25.743103%, 52.272034%, 94.799805%)" offset="0.335938"/><stop stop-opacity="1" stop-color="rgb(25.518799%, 52.377319%, 94.084167%)" offset="0.339844"/><stop stop-opacity="1" stop-color="rgb(25.294495%, 52.482605%, 93.370056%)" offset="0.34375"/><stop stop-opacity="1" stop-color="rgb(25.068665%, 52.587891%, 92.654419%)" offset="0.347656"/><stop stop-opacity="1" stop-color="rgb(24.84436%, 52.693176%, 91.938782%)" offset="0.351562"/><stop stop-opacity="1" stop-color="rgb(24.620056%, 52.798462%, 91.223145%)" offset="0.355469"/><stop stop-opacity="1" stop-color="rgb(24.395752%, 52.903748%, 90.509033%)" offset="0.359375"/><stop stop-opacity="1" stop-color="rgb(24.171448%, 53.009033%, 89.793396%)" offset="0.363281"/><stop stop-opacity="1" stop-color="rgb(23.947144%, 53.114319%, 89.077759%)" offset="0.367188"/><stop stop-opacity="1" stop-color="rgb(23.722839%, 53.219604%, 88.362122%)" offset="0.371094"/><stop stop-opacity="1" stop-color="rgb(23.498535%, 53.32489%, 87.64801%)" offset="0.375"/><stop stop-opacity="1" stop-color="rgb(23.274231%, 53.430176%, 86.932373%)" offset="0.378906"/><stop stop-opacity="1" stop-color="rgb(23.049927%, 53.535461%, 86.216736%)" offset="0.382813"/><stop stop-opacity="1" stop-color="rgb(22.825623%, 53.639221%, 85.501099%)" offset="0.386719"/><stop stop-opacity="1" stop-color="rgb(22.601318%, 53.744507%, 84.786987%)" offset="0.390625"/><stop stop-opacity="1" stop-color="rgb(22.377014%, 53.849792%, 84.07135%)" offset="0.394531"/><stop stop-opacity="1" stop-color="rgb(22.15271%, 53.955078%, 83.355713%)" offset="0.398438"/><stop stop-opacity="1" stop-color="rgb(21.928406%, 54.060364%, 82.640076%)" offset="0.402344"/><stop stop-opacity="1" stop-color="rgb(21.704102%, 54.165649%, 81.924438%)" offset="0.40625"/><stop stop-opacity="1" stop-color="rgb(21.478271%, 54.270935%, 81.208801%)" offset="0.410156"/><stop stop-opacity="1" stop-color="rgb(21.253967%, 54.376221%, 80.49469%)" offset="0.414062"/><stop stop-opacity="1" stop-color="rgb(21.029663%, 54.481506%, 79.779053%)" offset="0.417969"/><stop stop-opacity="1" stop-color="rgb(20.805359%, 54.586792%, 79.063416%)" offset="0.421875"/><stop stop-opacity="1" stop-color="rgb(20.581055%, 54.692078%, 78.347778%)" offset="0.425781"/><stop stop-opacity="1" stop-color="rgb(20.35675%, 54.797363%, 77.633667%)" offset="0.429688"/><stop stop-opacity="1" stop-color="rgb(20.132446%, 54.902649%, 76.91803%)" offset="0.433594"/><stop stop-opacity="1" stop-color="rgb(19.908142%, 55.007935%, 76.202393%)" offset="0.4375"/><stop stop-opacity="1" stop-color="rgb(19.683838%, 55.11322%, 75.486755%)" offset="0.441406"/><stop stop-opacity="1" stop-color="rgb(19.459534%, 55.218506%, 74.772644%)" offset="0.445312"/><stop stop-opacity="1" stop-color="rgb(19.235229%, 55.323792%, 74.057007%)" offset="0.449219"/><stop stop-opacity="1" stop-color="rgb(19.010925%, 55.429077%, 73.34137%)" offset="0.453125"/><stop stop-opacity="1" stop-color="rgb(18.786621%, 55.532837%, 72.625732%)" offset="0.457031"/><stop stop-opacity="1" stop-color="rgb(18.562317%, 55.638123%, 71.911621%)" offset="0.460938"/><stop stop-opacity="1" stop-color="rgb(18.336487%, 55.743408%, 71.195984%)" offset="0.464844"/><stop stop-opacity="1" stop-color="rgb(18.112183%, 55.848694%, 70.480347%)" offset="0.46875"/><stop stop-opacity="1" stop-color="rgb(17.887878%, 55.953979%, 69.764709%)" offset="0.472656"/><stop stop-opacity="1" stop-color="rgb(17.663574%, 56.059265%, 69.049072%)" offset="0.476562"/><stop stop-opacity="1" stop-color="rgb(17.43927%, 56.164551%, 68.333435%)" offset="0.480469"/><stop stop-opacity="1" stop-color="rgb(17.214966%, 56.269836%, 67.619324%)" offset="0.484375"/><stop stop-opacity="1" stop-color="rgb(16.990662%, 56.375122%, 66.903687%)" offset="0.488281"/><stop stop-opacity="1" stop-color="rgb(16.766357%, 56.480408%, 66.188049%)" offset="0.492188"/><stop stop-opacity="1" stop-color="rgb(16.542053%, 56.585693%, 65.472412%)" offset="0.496094"/><stop stop-opacity="1" stop-color="rgb(16.317749%, 56.690979%, 64.758301%)" offset="0.5"/><stop stop-opacity="1" stop-color="rgb(16.093445%, 56.796265%, 64.042664%)" offset="0.503906"/><stop stop-opacity="1" stop-color="rgb(15.869141%, 56.90155%, 63.327026%)" offset="0.507812"/><stop stop-opacity="1" stop-color="rgb(15.644836%, 57.006836%, 62.611389%)" offset="0.511719"/><stop stop-opacity="1" stop-color="rgb(15.420532%, 57.112122%, 61.897278%)" offset="0.515625"/><stop stop-opacity="1" stop-color="rgb(15.196228%, 57.215881%, 61.181641%)" offset="0.519531"/><stop stop-opacity="1" stop-color="rgb(14.971924%, 57.321167%, 60.466003%)" offset="0.523438"/><stop stop-opacity="1" stop-color="rgb(14.746094%, 57.426453%, 59.750366%)" offset="0.527344"/><stop stop-opacity="1" stop-color="rgb(14.52179%, 57.531738%, 59.036255%)" offset="0.53125"/><stop stop-opacity="1" stop-color="rgb(14.297485%, 57.637024%, 58.320618%)" offset="0.535156"/><stop stop-opacity="1" stop-color="rgb(14.073181%, 57.74231%, 57.60498%)" offset="0.539063"/><stop stop-opacity="1" stop-color="rgb(13.848877%, 57.847595%, 56.889343%)" offset="0.542969"/><stop stop-opacity="1" stop-color="rgb(13.624573%, 57.952881%, 56.173706%)" offset="0.546875"/><stop stop-opacity="1" stop-color="rgb(13.400269%, 58.058167%, 55.458069%)" offset="0.550781"/><stop stop-opacity="1" stop-color="rgb(13.175964%, 58.163452%, 54.743958%)" offset="0.554688"/><stop stop-opacity="1" stop-color="rgb(12.95166%, 58.268738%, 54.02832%)" offset="0.558594"/><stop stop-opacity="1" stop-color="rgb(12.727356%, 58.374023%, 53.312683%)" offset="0.5625"/><stop stop-opacity="1" stop-color="rgb(12.503052%, 58.479309%, 52.597046%)" offset="0.566406"/><stop stop-opacity="1" stop-color="rgb(12.278748%, 58.584595%, 51.882935%)" offset="0.570312"/><stop stop-opacity="1" stop-color="rgb(12.054443%, 58.68988%, 51.167297%)" offset="0.574219"/><stop stop-opacity="1" stop-color="rgb(11.830139%, 58.795166%, 50.45166%)" offset="0.578125"/><stop stop-opacity="1" stop-color="rgb(11.604309%, 58.898926%, 49.736023%)" offset="0.582031"/><stop stop-opacity="1" stop-color="rgb(11.380005%, 59.004211%, 49.021912%)" offset="0.585938"/><stop stop-opacity="1" stop-color="rgb(11.155701%, 59.109497%, 48.306274%)" offset="0.589844"/><stop stop-opacity="1" stop-color="rgb(10.931396%, 59.214783%, 47.590637%)" offset="0.59375"/><stop stop-opacity="1" stop-color="rgb(10.707092%, 59.320068%, 46.875%)" offset="0.597656"/><stop stop-opacity="1" stop-color="rgb(10.482788%, 59.425354%, 46.160889%)" offset="0.601562"/><stop stop-opacity="1" stop-color="rgb(10.258484%, 59.53064%, 45.445251%)" offset="0.605469"/><stop stop-opacity="1" stop-color="rgb(10.03418%, 59.635925%, 44.729614%)" offset="0.609375"/><stop stop-opacity="1" stop-color="rgb(9.809875%, 59.741211%, 44.013977%)" offset="0.613281"/><stop stop-opacity="1" stop-color="rgb(9.585571%, 59.846497%, 43.29834%)" offset="0.617188"/><stop stop-opacity="1" stop-color="rgb(9.361267%, 59.951782%, 42.582703%)" offset="0.621094"/><stop stop-opacity="1" stop-color="rgb(9.136963%, 60.057068%, 41.868591%)" offset="0.625"/><stop stop-opacity="1" stop-color="rgb(8.912659%, 60.162354%, 41.152954%)" offset="0.628906"/><stop stop-opacity="1" stop-color="rgb(8.688354%, 60.267639%, 40.437317%)" offset="0.632813"/><stop stop-opacity="1" stop-color="rgb(8.46405%, 60.372925%, 39.72168%)" offset="0.636719"/><stop stop-opacity="1" stop-color="rgb(8.239746%, 60.47821%, 39.007568%)" offset="0.640625"/><stop stop-opacity="1" stop-color="rgb(8.013916%, 60.58197%, 38.291931%)" offset="0.644531"/><stop stop-opacity="1" stop-color="rgb(7.789612%, 60.687256%, 37.576294%)" offset="0.648438"/><stop stop-opacity="1" stop-color="rgb(7.565308%, 60.792542%, 36.860657%)" offset="0.652344"/><stop stop-opacity="1" stop-color="rgb(7.341003%, 60.897827%, 36.146545%)" offset="0.65625"/><stop stop-opacity="1" stop-color="rgb(7.116699%, 61.003113%, 35.430908%)" offset="0.660156"/><stop stop-opacity="1" stop-color="rgb(6.892395%, 61.108398%, 34.715271%)" offset="0.664062"/><stop stop-opacity="1" stop-color="rgb(7.400513%, 61.236572%, 34.187317%)" offset="0.667969"/><stop stop-opacity="1" stop-color="rgb(7.90863%, 61.366272%, 33.659363%)" offset="0.671875"/><stop stop-opacity="1" stop-color="rgb(8.970642%, 61.512756%, 33.273315%)" offset="0.675781"/><stop stop-opacity="1" stop-color="rgb(10.032654%, 61.659241%, 32.888794%)" offset="0.679688"/><stop stop-opacity="1" stop-color="rgb(11.094666%, 61.805725%, 32.502747%)" offset="0.683594"/><stop stop-opacity="1" stop-color="rgb(12.156677%, 61.952209%, 32.116699%)" offset="0.6875"/><stop stop-opacity="1" stop-color="rgb(13.218689%, 62.098694%, 31.730652%)" offset="0.691406"/><stop stop-opacity="1" stop-color="rgb(14.280701%, 62.245178%, 31.34613%)" offset="0.695312"/><stop stop-opacity="1" stop-color="rgb(15.342712%, 62.391663%, 30.960083%)" offset="0.699219"/><stop stop-opacity="1" stop-color="rgb(16.404724%, 62.538147%, 30.574036%)" offset="0.703125"/><stop stop-opacity="1" stop-color="rgb(17.466736%, 62.684631%, 30.187988%)" offset="0.707031"/><stop stop-opacity="1" stop-color="rgb(18.530273%, 62.831116%, 29.803467%)" offset="0.710938"/><stop stop-opacity="1" stop-color="rgb(19.592285%, 62.9776%, 29.417419%)" offset="0.714844"/><stop stop-opacity="1" stop-color="rgb(20.654297%, 63.124084%, 29.031372%)" offset="0.71875"/><stop stop-opacity="1" stop-color="rgb(21.716309%, 63.270569%, 28.645325%)" offset="0.722656"/><stop stop-opacity="1" stop-color="rgb(22.77832%, 63.417053%, 28.260803%)" offset="0.726563"/><stop stop-opacity="1" stop-color="rgb(23.840332%, 63.563538%, 27.874756%)" offset="0.730469"/><stop stop-opacity="1" stop-color="rgb(24.902344%, 63.710022%, 27.488708%)" offset="0.734375"/><stop stop-opacity="1" stop-color="rgb(25.964355%, 63.856506%, 27.102661%)" offset="0.738281"/><stop stop-opacity="1" stop-color="rgb(27.026367%, 64.002991%, 26.71814%)" offset="0.742188"/><stop stop-opacity="1" stop-color="rgb(28.088379%, 64.149475%, 26.332092%)" offset="0.746094"/><stop stop-opacity="1" stop-color="rgb(29.150391%, 64.297485%, 25.946045%)" offset="0.75"/><stop stop-opacity="1" stop-color="rgb(30.212402%, 64.44397%, 25.559998%)" offset="0.753906"/><stop stop-opacity="1" stop-color="rgb(31.274414%, 64.590454%, 25.175476%)" offset="0.757812"/><stop stop-opacity="1" stop-color="rgb(32.336426%, 64.736938%, 24.789429%)" offset="0.761719"/><stop stop-opacity="1" stop-color="rgb(33.398438%, 64.883423%, 24.403381%)" offset="0.765625"/><stop stop-opacity="1" stop-color="rgb(34.460449%, 65.029907%, 24.017334%)" offset="0.769531"/><stop stop-opacity="1" stop-color="rgb(35.522461%, 65.176392%, 23.632812%)" offset="0.773437"/><stop stop-opacity="1" stop-color="rgb(36.584473%, 65.322876%, 23.246765%)" offset="0.777344"/><stop stop-opacity="1" stop-color="rgb(37.64801%, 65.46936%, 22.860718%)" offset="0.78125"/><stop stop-opacity="1" stop-color="rgb(38.710022%, 65.615845%, 22.47467%)" offset="0.785156"/><stop stop-opacity="1" stop-color="rgb(39.772034%, 65.762329%, 22.090149%)" offset="0.789063"/><stop stop-opacity="1" stop-color="rgb(40.834045%, 65.908813%, 21.704102%)" offset="0.792969"/><stop stop-opacity="1" stop-color="rgb(41.896057%, 66.055298%, 21.318054%)" offset="0.796875"/><stop stop-opacity="1" stop-color="rgb(42.958069%, 66.201782%, 20.932007%)" offset="0.800781"/><stop stop-opacity="1" stop-color="rgb(44.020081%, 66.348267%, 20.547485%)" offset="0.804688"/><stop stop-opacity="1" stop-color="rgb(45.082092%, 66.494751%, 20.161438%)" offset="0.808594"/><stop stop-opacity="1" stop-color="rgb(46.144104%, 66.641235%, 19.775391%)" offset="0.8125"/><stop stop-opacity="1" stop-color="rgb(47.206116%, 66.78772%, 19.389343%)" offset="0.816406"/><stop stop-opacity="1" stop-color="rgb(48.268127%, 66.934204%, 19.003296%)" offset="0.820312"/><stop stop-opacity="1" stop-color="rgb(49.330139%, 67.080688%, 18.617249%)" offset="0.824219"/><stop stop-opacity="1" stop-color="rgb(50.392151%, 67.227173%, 18.232727%)" offset="0.828125"/><stop stop-opacity="1" stop-color="rgb(51.454163%, 67.373657%, 17.84668%)" offset="0.832031"/><stop stop-opacity="1" stop-color="rgb(52.516174%, 67.520142%, 17.460632%)" offset="0.835938"/><stop stop-opacity="1" stop-color="rgb(53.578186%, 67.666626%, 17.074585%)" offset="0.839844"/><stop stop-opacity="1" stop-color="rgb(54.641724%, 67.81311%, 16.690063%)" offset="0.84375"/><stop stop-opacity="1" stop-color="rgb(55.703735%, 67.959595%, 16.304016%)" offset="0.847656"/><stop stop-opacity="1" stop-color="rgb(56.765747%, 68.106079%, 15.917969%)" offset="0.851562"/><stop stop-opacity="1" stop-color="rgb(57.827759%, 68.252563%, 15.531921%)" offset="0.855469"/><stop stop-opacity="1" stop-color="rgb(58.889771%, 68.400574%, 15.1474%)" offset="0.859375"/><stop stop-opacity="1" stop-color="rgb(59.951782%, 68.547058%, 14.761353%)" offset="0.863281"/><stop stop-opacity="1" stop-color="rgb(61.013794%, 68.693542%, 14.375305%)" offset="0.867187"/><stop stop-opacity="1" stop-color="rgb(62.075806%, 68.840027%, 13.989258%)" offset="0.871094"/><stop stop-opacity="1" stop-color="rgb(63.137817%, 68.986511%, 13.604736%)" offset="0.875"/><stop stop-opacity="1" stop-color="rgb(64.199829%, 69.132996%, 13.218689%)" offset="0.878906"/><stop stop-opacity="1" stop-color="rgb(65.261841%, 69.27948%, 12.832642%)" offset="0.882813"/><stop stop-opacity="1" stop-color="rgb(66.323853%, 69.425964%, 12.446594%)" offset="0.886719"/><stop stop-opacity="1" stop-color="rgb(67.385864%, 69.572449%, 12.062073%)" offset="0.890625"/><stop stop-opacity="1" stop-color="rgb(68.447876%, 69.718933%, 11.676025%)" offset="0.894531"/><stop stop-opacity="1" stop-color="rgb(69.509888%, 69.865417%, 11.289978%)" offset="0.898438"/><stop stop-opacity="1" stop-color="rgb(70.571899%, 70.011902%, 10.903931%)" offset="0.902344"/><stop stop-opacity="1" stop-color="rgb(71.633911%, 70.158386%, 10.519409%)" offset="0.90625"/><stop stop-opacity="1" stop-color="rgb(72.695923%, 70.304871%, 10.133362%)" offset="0.910156"/><stop stop-opacity="1" stop-color="rgb(73.75946%, 70.451355%, 9.747314%)" offset="0.914062"/><stop stop-opacity="1" stop-color="rgb(74.821472%, 70.597839%, 9.361267%)" offset="0.917969"/><stop stop-opacity="1" stop-color="rgb(75.883484%, 70.744324%, 8.976746%)" offset="0.921875"/><stop stop-opacity="1" stop-color="rgb(76.945496%, 70.890808%, 8.590698%)" offset="0.925781"/><stop stop-opacity="1" stop-color="rgb(78.007507%, 71.037292%, 8.204651%)" offset="0.929688"/><stop stop-opacity="1" stop-color="rgb(79.069519%, 71.183777%, 7.818604%)" offset="0.933594"/><stop stop-opacity="1" stop-color="rgb(80.131531%, 71.330261%, 7.434082%)" offset="0.9375"/><stop stop-opacity="1" stop-color="rgb(81.193542%, 71.476746%, 7.048035%)" offset="0.941406"/><stop stop-opacity="1" stop-color="rgb(82.255554%, 71.62323%, 6.661987%)" offset="0.945312"/><stop stop-opacity="1" stop-color="rgb(83.317566%, 71.769714%, 6.27594%)" offset="0.949219"/><stop stop-opacity="1" stop-color="rgb(84.379578%, 71.916199%, 5.891418%)" offset="0.953125"/><stop stop-opacity="1" stop-color="rgb(85.441589%, 72.062683%, 5.505371%)" offset="0.957031"/><stop stop-opacity="1" stop-color="rgb(86.503601%, 72.209167%, 5.119324%)" offset="0.960938"/><stop stop-opacity="1" stop-color="rgb(87.565613%, 72.355652%, 4.733276%)" offset="0.964844"/><stop stop-opacity="1" stop-color="rgb(88.627625%, 72.503662%, 4.347229%)" offset="0.96875"/><stop stop-opacity="1" stop-color="rgb(89.689636%, 72.650146%, 3.961182%)" offset="0.972656"/><stop stop-opacity="1" stop-color="rgb(90.753174%, 72.796631%, 3.57666%)" offset="0.976563"/><stop stop-opacity="1" stop-color="rgb(91.815186%, 72.943115%, 3.190613%)" offset="0.980469"/><stop stop-opacity="1" stop-color="rgb(92.877197%, 73.0896%, 2.804565%)" offset="0.984375"/><stop stop-opacity="1" stop-color="rgb(93.939209%, 73.236084%, 2.418518%)" offset="0.988281"/><stop stop-opacity="1" stop-color="rgb(95.001221%, 73.382568%, 2.033997%)" offset="0.992188"/><stop stop-opacity="1" stop-color="rgb(96.063232%, 73.529053%, 1.647949%)" offset="0.996094"/><stop stop-opacity="1" stop-color="rgb(97.125244%, 73.675537%, 1.261902%)" offset="1"/></linearGradient></defs><g clip-path="url(#87686b3abb)"><path fill="#ffffff" d="M 0.730469 0 L 509.769531 0 L 509.769531 148 L 0.730469 148 Z M 0.730469 0 " fill-opacity="1" fill-rule="nonzero"/></g><g clip-path="url(#5edff71996)"><g clip-path="url(#9c40d069da)"><path stroke-linecap="butt" transform="matrix(0.747483, 0, 0, 0.747483, 0.734711, 1.704099)" fill="none" stroke-linejoin="miter" d="M 37.996853 -0.00130332 L 642.431449 -0.00130332 C 652.512153 -0.00130332 662.174787 4.001713 669.302874 11.1298 C 676.425735 18.257887 680.428751 27.920521 680.428751 38.001225 L 680.428751 157.438488 C 680.428751 167.513965 676.425735 177.181825 669.302874 184.309912 C 662.174787 191.432773 652.512153 195.43579 642.431449 195.43579 L 37.996853 195.43579 C 27.921375 195.43579 18.253515 191.432773 11.130654 184.309912 C 4.002567 177.181825 -0.000449374 167.513965 -0.000449374 157.438488 L -0.000449374 38.001225 C -0.000449374 27.920521 4.002567 18.257887 11.130654 11.1298 C 18.253515 4.001713 27.921375 -0.00130332 37.996853 -0.00130332 Z M 37.996853 -0.00130332 " stroke="url(#ecaea60a2a)" stroke-width="4" stroke-miterlimit="4"/></g></g><g fill="#61697b" fill-opacity="1"><g transform="translate(38.900099, 121.905475)"><g><path d="M 7.53125 0.171875 C 6.207031 0.171875 5.046875 -0.0859375 4.046875 -0.609375 C 3.054688 -1.140625 2.289062 -1.878906 1.75 -2.828125 C 1.207031 -3.773438 0.9375 -4.894531 0.9375 -6.1875 C 0.9375 -7.082031 1.09375 -7.925781 1.40625 -8.71875 C 1.726562 -9.507812 2.175781 -10.195312 2.75 -10.78125 C 3.332031 -11.375 4.023438 -11.835938 4.828125 -12.171875 C 5.628906 -12.515625 6.507812 -12.6875 7.46875 -12.6875 C 8 -12.6875 8.523438 -12.640625 9.046875 -12.546875 C 9.566406 -12.453125 10.039062 -12.332031 10.46875 -12.1875 C 10.90625 -12.050781 11.238281 -11.90625 11.46875 -11.75 L 11.53125 -9.625 L 11.359375 -9.59375 C 11.140625 -10.113281 10.8125 -10.582031 10.375 -11 C 9.945312 -11.414062 9.441406 -11.742188 8.859375 -11.984375 C 8.285156 -12.234375 7.644531 -12.359375 6.9375 -12.359375 C 6.082031 -12.359375 5.3125 -12.160156 4.625 -11.765625 C 3.945312 -11.378906 3.40625 -10.8125 3 -10.0625 C 2.601562 -9.3125 2.398438 -8.382812 2.390625 -7.28125 C 2.378906 -6.4375 2.5 -5.59375 2.75 -4.75 C 3 -3.914062 3.367188 -3.148438 3.859375 -2.453125 C 4.359375 -1.765625 4.957031 -1.210938 5.65625 -0.796875 C 6.363281 -0.378906 7.175781 -0.171875 8.09375 -0.171875 C 8.757812 -0.171875 9.359375 -0.328125 9.890625 -0.640625 C 10.429688 -0.960938 10.816406 -1.347656 11.046875 -1.796875 L 11.03125 -3.625 C 11.03125 -4.1875 10.972656 -4.59375 10.859375 -4.84375 C 10.742188 -5.09375 10.492188 -5.265625 10.109375 -5.359375 L 10.109375 -5.578125 L 12.46875 -5.578125 L 12.46875 -2.203125 C 12.125 -1.722656 11.675781 -1.300781 11.125 -0.9375 C 10.582031 -0.582031 10 -0.304688 9.375 -0.109375 C 8.757812 0.078125 8.144531 0.171875 7.53125 0.171875 Z M 7.53125 0.171875 "/></g></g></g><g fill="#61697b" fill-opacity="1"><g transform="translate(52.96471, 121.905475)"><g><path d="M 4.890625 0.171875 C 4.398438 0.171875 3.90625 0.0820312 3.40625 -0.09375 C 2.90625 -0.269531 2.445312 -0.539062 2.03125 -0.90625 C 1.613281 -1.269531 1.273438 -1.726562 1.015625 -2.28125 C 0.765625 -2.832031 0.640625 -3.476562 0.640625 -4.21875 C 0.640625 -5.195312 0.859375 -6.050781 1.296875 -6.78125 C 1.734375 -7.507812 2.3125 -8.078125 3.03125 -8.484375 C 3.75 -8.890625 4.523438 -9.09375 5.359375 -9.09375 C 6.117188 -9.09375 6.765625 -8.945312 7.296875 -8.65625 C 7.828125 -8.363281 8.238281 -7.976562 8.53125 -7.5 C 8.820312 -7.019531 8.972656 -6.492188 8.984375 -5.921875 L 1.96875 -5.921875 C 1.9375 -5.660156 1.921875 -5.382812 1.921875 -5.09375 C 1.921875 -4.28125 2.078125 -3.554688 2.390625 -2.921875 C 2.710938 -2.296875 3.160156 -1.8125 3.734375 -1.46875 C 4.316406 -1.125 5 -0.953125 5.78125 -0.953125 C 6.46875 -0.953125 7.066406 -1.09375 7.578125 -1.375 C 8.097656 -1.664062 8.5625 -2.046875 8.96875 -2.515625 L 9.125 -2.34375 C 8.832031 -1.925781 8.472656 -1.523438 8.046875 -1.140625 C 7.628906 -0.753906 7.160156 -0.4375 6.640625 -0.1875 C 6.117188 0.0507812 5.535156 0.171875 4.890625 0.171875 Z M 2.03125 -6.15625 L 7.546875 -6.15625 C 7.492188 -6.5625 7.347656 -6.960938 7.109375 -7.359375 C 6.878906 -7.765625 6.566406 -8.097656 6.171875 -8.359375 C 5.785156 -8.628906 5.316406 -8.765625 4.765625 -8.765625 C 4.003906 -8.785156 3.390625 -8.539062 2.921875 -8.03125 C 2.460938 -7.53125 2.164062 -6.90625 2.03125 -6.15625 Z M 2.03125 -6.15625 "/></g></g></g><g fill="#61697b" fill-opacity="1"><g transform="translate(63.351705, 121.905475)"><g><path d="M 7.515625 0 C 7.160156 0 6.984375 -0.175781 6.984375 -0.53125 L 6.984375 -3.765625 C 6.796875 -3.035156 6.507812 -2.367188 6.125 -1.765625 C 5.75 -1.171875 5.304688 -0.695312 4.796875 -0.34375 C 4.285156 0 3.734375 0.171875 3.140625 0.171875 C 2.691406 0.171875 2.273438 0.0820312 1.890625 -0.09375 C 1.515625 -0.269531 1.207031 -0.53125 0.96875 -0.875 C 0.738281 -1.226562 0.625 -1.660156 0.625 -2.171875 C 0.625 -2.796875 0.804688 -3.300781 1.171875 -3.6875 C 1.546875 -4.082031 2.039062 -4.40625 2.65625 -4.65625 C 3.28125 -4.914062 3.941406 -5.140625 4.640625 -5.328125 L 6.984375 -5.953125 C 6.929688 -6.828125 6.6875 -7.46875 6.25 -7.875 C 5.820312 -8.289062 5.226562 -8.5 4.46875 -8.5 C 3.925781 -8.5 3.398438 -8.367188 2.890625 -8.109375 C 2.390625 -7.859375 1.910156 -7.457031 1.453125 -6.90625 L 1.296875 -7.046875 C 1.804688 -7.679688 2.382812 -8.179688 3.03125 -8.546875 C 3.6875 -8.910156 4.40625 -9.09375 5.1875 -9.09375 C 6.269531 -9.09375 7.066406 -8.804688 7.578125 -8.234375 C 8.097656 -7.671875 8.359375 -6.878906 8.359375 -5.859375 L 8.359375 -2.28125 C 8.359375 -1.550781 8.40625 -1.046875 8.5 -0.765625 C 8.601562 -0.492188 8.796875 -0.316406 9.078125 -0.234375 L 9.078125 0 Z M 1.96875 -2.671875 C 1.96875 -2.085938 2.144531 -1.640625 2.5 -1.328125 C 2.851562 -1.023438 3.285156 -0.875 3.796875 -0.875 C 4.273438 -0.875 4.707031 -1.007812 5.09375 -1.28125 C 5.488281 -1.550781 5.820312 -1.898438 6.09375 -2.328125 C 6.375 -2.765625 6.59375 -3.234375 6.75 -3.734375 C 6.90625 -4.234375 6.984375 -4.71875 6.984375 -5.1875 L 6.984375 -5.71875 L 4.71875 -5.109375 C 4.269531 -4.992188 3.832031 -4.835938 3.40625 -4.640625 C 2.988281 -4.441406 2.644531 -4.1875 2.375 -3.875 C 2.101562 -3.5625 1.96875 -3.160156 1.96875 -2.671875 Z M 1.96875 -2.671875 "/></g></g></g><g fill="#61697b" fill-opacity="1"><g transform="translate(73.613123, 121.905475)"><g><path d="M 0.578125 0 L 0.578125 -0.234375 C 0.847656 -0.316406 1.035156 -0.492188 1.140625 -0.765625 C 1.242188 -1.046875 1.296875 -1.550781 1.296875 -2.28125 L 1.296875 -6.40625 C 1.296875 -6.820312 1.265625 -7.132812 1.203125 -7.34375 C 1.148438 -7.550781 1.070312 -7.703125 0.96875 -7.796875 C 0.875 -7.898438 0.742188 -7.984375 0.578125 -8.046875 L 0.578125 -8.25 L 2.53125 -9.109375 L 2.6875 -8.984375 L 2.6875 -6.75 C 2.832031 -7.09375 3.019531 -7.410156 3.25 -7.703125 C 3.488281 -8.003906 3.738281 -8.253906 4 -8.453125 C 4.269531 -8.648438 4.570312 -8.804688 4.90625 -8.921875 C 5.238281 -9.035156 5.617188 -9.09375 6.046875 -9.09375 C 6.398438 -9.09375 6.679688 -9.050781 6.890625 -8.96875 C 7.097656 -8.882812 7.203125 -8.765625 7.203125 -8.609375 C 7.203125 -8.421875 7.109375 -8.203125 6.921875 -7.953125 C 6.742188 -7.710938 6.492188 -7.59375 6.171875 -7.59375 C 5.929688 -7.59375 5.628906 -7.632812 5.265625 -7.71875 C 4.898438 -7.8125 4.453125 -7.9375 3.921875 -8.09375 C 3.753906 -7.96875 3.578125 -7.78125 3.390625 -7.53125 C 3.210938 -7.289062 3.0625 -7.019531 2.9375 -6.71875 C 2.8125 -6.425781 2.734375 -6.132812 2.703125 -5.84375 L 2.6875 -5.84375 L 2.6875 -2.28125 C 2.6875 -1.550781 2.738281 -1.046875 2.84375 -0.765625 C 2.945312 -0.492188 3.132812 -0.316406 3.40625 -0.234375 L 3.40625 0 Z M 0.578125 0 "/></g></g></g><g fill="#61697b" fill-opacity="1"><g transform="translate(81.901197, 121.905475)"><g/></g></g><g fill="#61697b" fill-opacity="1"><g transform="translate(86.421961, 121.905475)"><g><path d="M 6.46875 0.171875 C 5.820312 0.171875 5.195312 0.0859375 4.59375 -0.078125 C 3.988281 -0.242188 3.445312 -0.507812 2.96875 -0.875 C 2.5 -1.25 2.117188 -1.742188 1.828125 -2.359375 C 1.546875 -2.972656 1.40625 -3.726562 1.40625 -4.625 L 1.40625 -10.28125 C 1.40625 -11.019531 1.351562 -11.523438 1.25 -11.796875 C 1.144531 -12.066406 0.957031 -12.242188 0.6875 -12.328125 L 0.6875 -12.5625 L 3.59375 -12.5625 L 3.59375 -12.328125 C 3.320312 -12.242188 3.132812 -12.066406 3.03125 -11.796875 C 2.925781 -11.523438 2.875 -11.019531 2.875 -10.28125 L 2.875 -4.734375 C 2.875 -3.617188 3.054688 -2.726562 3.421875 -2.0625 C 3.796875 -1.40625 4.300781 -0.929688 4.9375 -0.640625 C 5.570312 -0.347656 6.273438 -0.203125 7.046875 -0.203125 C 7.429688 -0.203125 7.832031 -0.269531 8.25 -0.40625 C 8.664062 -0.550781 9.054688 -0.796875 9.421875 -1.140625 C 9.785156 -1.492188 10.082031 -1.960938 10.3125 -2.546875 C 10.539062 -3.128906 10.65625 -3.859375 10.65625 -4.734375 L 10.65625 -9.5625 C 10.65625 -10.238281 10.609375 -10.765625 10.515625 -11.140625 C 10.421875 -11.523438 10.28125 -11.800781 10.09375 -11.96875 C 9.914062 -12.132812 9.695312 -12.253906 9.4375 -12.328125 L 9.4375 -12.5625 L 11.65625 -12.5625 L 11.65625 -12.328125 C 11.394531 -12.242188 11.207031 -12.066406 11.09375 -11.796875 C 10.988281 -11.523438 10.9375 -11.019531 10.9375 -10.28125 L 10.9375 -4.796875 C 10.9375 -3.597656 10.734375 -2.632812 10.328125 -1.90625 C 9.929688 -1.175781 9.398438 -0.644531 8.734375 -0.3125 C 8.066406 0.0078125 7.3125 0.171875 6.46875 0.171875 Z M 6.46875 0.171875 "/></g></g></g><g fill="#61697b" fill-opacity="1"><g transform="translate(99.356382, 121.905475)"><g><path d="M 5.4375 0.15625 C 4.945312 0.15625 4.476562 0.0820312 4.03125 -0.0625 C 3.582031 -0.207031 3.179688 -0.394531 2.828125 -0.625 L 2.828125 2.5625 C 2.828125 3.289062 2.878906 3.789062 2.984375 4.0625 C 3.085938 4.34375 3.273438 4.523438 3.546875 4.609375 L 3.546875 4.84375 L 0.71875 4.84375 L 0.71875 4.609375 C 0.988281 4.523438 1.175781 4.34375 1.28125 4.0625 C 1.382812 3.789062 1.4375 3.289062 1.4375 2.5625 L 1.4375 -6.40625 C 1.4375 -6.820312 1.410156 -7.132812 1.359375 -7.34375 C 1.304688 -7.550781 1.226562 -7.703125 1.125 -7.796875 C 1.019531 -7.898438 0.882812 -7.984375 0.71875 -8.046875 L 0.71875 -8.25 L 2.671875 -9.109375 L 2.828125 -8.984375 L 2.828125 -7.671875 C 3.316406 -8.035156 3.863281 -8.363281 4.46875 -8.65625 C 5.070312 -8.945312 5.722656 -9.09375 6.421875 -9.09375 C 7.117188 -9.09375 7.738281 -8.910156 8.28125 -8.546875 C 8.832031 -8.191406 9.265625 -7.6875 9.578125 -7.03125 C 9.898438 -6.375 10.0625 -5.601562 10.0625 -4.71875 C 10.0625 -3.882812 9.878906 -3.09375 9.515625 -2.34375 C 9.160156 -1.601562 8.640625 -1.003906 7.953125 -0.546875 C 7.265625 -0.0859375 6.425781 0.144531 5.4375 0.15625 Z M 2.828125 -2.953125 C 2.828125 -2.660156 2.914062 -2.347656 3.09375 -2.015625 C 3.28125 -1.691406 3.519531 -1.390625 3.8125 -1.109375 C 4.113281 -0.835938 4.453125 -0.613281 4.828125 -0.4375 C 5.210938 -0.257812 5.609375 -0.171875 6.015625 -0.171875 C 6.953125 -0.171875 7.644531 -0.492188 8.09375 -1.140625 C 8.539062 -1.785156 8.765625 -2.628906 8.765625 -3.671875 C 8.765625 -4.179688 8.710938 -4.710938 8.609375 -5.265625 C 8.503906 -5.816406 8.320312 -6.335938 8.0625 -6.828125 C 7.800781 -7.316406 7.460938 -7.710938 7.046875 -8.015625 C 6.628906 -8.328125 6.101562 -8.484375 5.46875 -8.484375 C 4.957031 -8.484375 4.484375 -8.375 4.046875 -8.15625 C 3.617188 -7.9375 3.210938 -7.679688 2.828125 -7.390625 Z M 2.828125 -2.953125 "/></g></g></g><g fill="#61697b" fill-opacity="1"><g transform="translate(110.945331, 121.905475)"><g/></g></g><g fill="#61697b" fill-opacity="1"><g transform="translate(115.466095, 121.905475)"><g><path d="M 0.921875 0 L 0.921875 -0.234375 C 1.191406 -0.316406 1.375 -0.492188 1.46875 -0.765625 C 1.570312 -1.046875 1.625 -1.550781 1.625 -2.28125 L 1.625 -10.28125 C 1.625 -11.019531 1.570312 -11.523438 1.46875 -11.796875 C 1.375 -12.066406 1.191406 -12.242188 0.921875 -12.328125 L 0.921875 -12.5625 L 9.359375 -12.5625 L 9.53125 -10.671875 L 9.328125 -10.625 C 9.023438 -11.21875 8.648438 -11.640625 8.203125 -11.890625 C 7.765625 -12.140625 7.125 -12.265625 6.28125 -12.265625 L 3.109375 -12.265625 L 3.109375 -7.015625 L 5.234375 -7.015625 C 5.921875 -7.015625 6.453125 -7.054688 6.828125 -7.140625 C 7.203125 -7.234375 7.472656 -7.367188 7.640625 -7.546875 C 7.816406 -7.734375 7.941406 -7.957031 8.015625 -8.21875 L 8.234375 -8.21875 L 8.234375 -5.484375 L 8.015625 -5.484375 C 7.941406 -5.765625 7.816406 -5.992188 7.640625 -6.171875 C 7.472656 -6.347656 7.203125 -6.484375 6.828125 -6.578125 C 6.453125 -6.671875 5.921875 -6.71875 5.234375 -6.71875 L 3.109375 -6.71875 L 3.109375 -2.28125 C 3.109375 -1.550781 3.15625 -1.046875 3.25 -0.765625 C 3.351562 -0.492188 3.546875 -0.316406 3.828125 -0.234375 L 3.828125 0 Z M 0.921875 0 "/></g></g></g><g fill="#61697b" fill-opacity="1"><g transform="translate(126.247761, 121.905475)"><g><path d="M 5.34375 0.171875 C 4.769531 0.171875 4.203125 0.0820312 3.640625 -0.09375 C 3.085938 -0.269531 2.582031 -0.539062 2.125 -0.90625 C 1.675781 -1.28125 1.316406 -1.753906 1.046875 -2.328125 C 0.773438 -2.898438 0.640625 -3.578125 0.640625 -4.359375 C 0.640625 -5.296875 0.859375 -6.117188 1.296875 -6.828125 C 1.742188 -7.535156 2.328125 -8.085938 3.046875 -8.484375 C 3.765625 -8.890625 4.53125 -9.09375 5.34375 -9.09375 C 5.90625 -9.09375 6.460938 -9.003906 7.015625 -8.828125 C 7.566406 -8.660156 8.066406 -8.390625 8.515625 -8.015625 C 8.972656 -7.648438 9.335938 -7.175781 9.609375 -6.59375 C 9.890625 -6.019531 10.03125 -5.332031 10.03125 -4.53125 C 10.03125 -3.769531 9.890625 -3.09375 9.609375 -2.5 C 9.328125 -1.914062 8.953125 -1.425781 8.484375 -1.03125 C 8.015625 -0.632812 7.503906 -0.332031 6.953125 -0.125 C 6.410156 0.0703125 5.875 0.171875 5.34375 0.171875 Z M 2.03125 -5.375 C 2.03125 -4.800781 2.117188 -4.210938 2.296875 -3.609375 C 2.472656 -3.003906 2.726562 -2.445312 3.0625 -1.9375 C 3.394531 -1.425781 3.796875 -1.007812 4.265625 -0.6875 C 4.742188 -0.363281 5.285156 -0.203125 5.890625 -0.203125 C 6.535156 -0.203125 7.0625 -0.351562 7.46875 -0.65625 C 7.875 -0.957031 8.171875 -1.359375 8.359375 -1.859375 C 8.554688 -2.367188 8.65625 -2.910156 8.65625 -3.484375 C 8.65625 -4.054688 8.5625 -4.65625 8.375 -5.28125 C 8.1875 -5.90625 7.914062 -6.488281 7.5625 -7.03125 C 7.207031 -7.570312 6.785156 -8.003906 6.296875 -8.328125 C 5.804688 -8.648438 5.269531 -8.789062 4.6875 -8.75 C 4.070312 -8.726562 3.566406 -8.5625 3.171875 -8.25 C 2.773438 -7.9375 2.484375 -7.53125 2.296875 -7.03125 C 2.117188 -6.53125 2.03125 -5.976562 2.03125 -5.375 Z M 2.03125 -5.375 "/></g></g></g><g fill="#61697b" fill-opacity="1"><g transform="translate(137.800828, 121.905475)"><g><path d="M 0.578125 0 L 0.578125 -0.234375 C 0.847656 -0.316406 1.035156 -0.492188 1.140625 -0.765625 C 1.242188 -1.046875 1.296875 -1.550781 1.296875 -2.28125 L 1.296875 -6.40625 C 1.296875 -6.820312 1.265625 -7.132812 1.203125 -7.34375 C 1.148438 -7.550781 1.070312 -7.703125 0.96875 -7.796875 C 0.875 -7.898438 0.742188 -7.984375 0.578125 -8.046875 L 0.578125 -8.25 L 2.53125 -9.109375 L 2.6875 -8.984375 L 2.6875 -6.75 C 2.832031 -7.09375 3.019531 -7.410156 3.25 -7.703125 C 3.488281 -8.003906 3.738281 -8.253906 4 -8.453125 C 4.269531 -8.648438 4.570312 -8.804688 4.90625 -8.921875 C 5.238281 -9.035156 5.617188 -9.09375 6.046875 -9.09375 C 6.398438 -9.09375 6.679688 -9.050781 6.890625 -8.96875 C 7.097656 -8.882812 7.203125 -8.765625 7.203125 -8.609375 C 7.203125 -8.421875 7.109375 -8.203125 6.921875 -7.953125 C 6.742188 -7.710938 6.492188 -7.59375 6.171875 -7.59375 C 5.929688 -7.59375 5.628906 -7.632812 5.265625 -7.71875 C 4.898438 -7.8125 4.453125 -7.9375 3.921875 -8.09375 C 3.753906 -7.96875 3.578125 -7.78125 3.390625 -7.53125 C 3.210938 -7.289062 3.0625 -7.019531 2.9375 -6.71875 C 2.8125 -6.425781 2.734375 -6.132812 2.703125 -5.84375 L 2.6875 -5.84375 L 2.6875 -2.28125 C 2.6875 -1.550781 2.738281 -1.046875 2.84375 -0.765625 C 2.945312 -0.492188 3.132812 -0.316406 3.40625 -0.234375 L 3.40625 0 Z M 0.578125 0 "/></g></g></g><g fill="#61697b" fill-opacity="1"><g transform="translate(146.088908, 121.905475)"><g/></g></g><g fill="#61697b" fill-opacity="1"><g transform="translate(150.609678, 121.905475)"><g><path d="M 3.5625 0 L 3.5625 -0.234375 C 3.84375 -0.316406 4.03125 -0.492188 4.125 -0.765625 C 4.226562 -1.046875 4.28125 -1.550781 4.28125 -2.28125 L 4.28125 -12.265625 L 3.40625 -12.265625 C 2.601562 -12.265625 1.992188 -12.140625 1.578125 -11.890625 C 1.160156 -11.640625 0.796875 -11.191406 0.484375 -10.546875 L 0.28125 -10.578125 L 0.390625 -12.5625 L 9.625 -12.5625 L 9.734375 -10.578125 L 9.546875 -10.546875 C 9.242188 -11.191406 8.882812 -11.640625 8.46875 -11.890625 C 8.050781 -12.140625 7.4375 -12.265625 6.625 -12.265625 L 5.78125 -12.265625 L 5.78125 -2.28125 C 5.78125 -1.550781 5.828125 -1.046875 5.921875 -0.765625 C 6.023438 -0.492188 6.21875 -0.316406 6.5 -0.234375 L 6.5 0 Z M 3.5625 0 "/></g></g></g><g fill="#61697b" fill-opacity="1"><g transform="translate(161.40929, 121.905475)"><g><path d="M 0.484375 0 L 0.484375 -0.234375 C 0.753906 -0.316406 0.941406 -0.492188 1.046875 -0.765625 C 1.148438 -1.046875 1.203125 -1.550781 1.203125 -2.28125 L 1.203125 -11.78125 C 1.203125 -12.195312 1.175781 -12.507812 1.125 -12.71875 C 1.070312 -12.9375 0.992188 -13.09375 0.890625 -13.1875 C 0.785156 -13.28125 0.648438 -13.363281 0.484375 -13.4375 L 0.484375 -13.625 L 2.4375 -14.5 L 2.59375 -14.375 L 2.59375 -7.4375 C 3.125 -7.863281 3.71875 -8.242188 4.375 -8.578125 C 5.03125 -8.921875 5.707031 -9.09375 6.40625 -9.09375 C 7.289062 -9.09375 7.984375 -8.832031 8.484375 -8.3125 C 8.984375 -7.800781 9.234375 -7.019531 9.234375 -5.96875 L 9.234375 -2.28125 C 9.234375 -1.550781 9.285156 -1.046875 9.390625 -0.765625 C 9.492188 -0.492188 9.679688 -0.316406 9.953125 -0.234375 L 9.953125 0 L 7.125 0 L 7.125 -0.234375 C 7.394531 -0.316406 7.582031 -0.492188 7.6875 -0.765625 C 7.789062 -1.046875 7.84375 -1.550781 7.84375 -2.28125 L 7.84375 -5.609375 C 7.84375 -6.546875 7.644531 -7.257812 7.25 -7.75 C 6.851562 -8.25 6.257812 -8.5 5.46875 -8.5 C 4.976562 -8.5 4.488281 -8.367188 4 -8.109375 C 3.519531 -7.859375 3.050781 -7.539062 2.59375 -7.15625 L 2.59375 -2.28125 C 2.59375 -1.550781 2.644531 -1.046875 2.75 -0.765625 C 2.851562 -0.492188 3.039062 -0.316406 3.3125 -0.234375 L 3.3125 0 Z M 0.484375 0 "/></g></g></g><g fill="#61697b" fill-opacity="1"><g transform="translate(172.549762, 121.905475)"><g><path d="M 4.890625 0.171875 C 4.398438 0.171875 3.90625 0.0820312 3.40625 -0.09375 C 2.90625 -0.269531 2.445312 -0.539062 2.03125 -0.90625 C 1.613281 -1.269531 1.273438 -1.726562 1.015625 -2.28125 C 0.765625 -2.832031 0.640625 -3.476562 0.640625 -4.21875 C 0.640625 -5.195312 0.859375 -6.050781 1.296875 -6.78125 C 1.734375 -7.507812 2.3125 -8.078125 3.03125 -8.484375 C 3.75 -8.890625 4.523438 -9.09375 5.359375 -9.09375 C 6.117188 -9.09375 6.765625 -8.945312 7.296875 -8.65625 C 7.828125 -8.363281 8.238281 -7.976562 8.53125 -7.5 C 8.820312 -7.019531 8.972656 -6.492188 8.984375 -5.921875 L 1.96875 -5.921875 C 1.9375 -5.660156 1.921875 -5.382812 1.921875 -5.09375 C 1.921875 -4.28125 2.078125 -3.554688 2.390625 -2.921875 C 2.710938 -2.296875 3.160156 -1.8125 3.734375 -1.46875 C 4.316406 -1.125 5 -0.953125 5.78125 -0.953125 C 6.46875 -0.953125 7.066406 -1.09375 7.578125 -1.375 C 8.097656 -1.664062 8.5625 -2.046875 8.96875 -2.515625 L 9.125 -2.34375 C 8.832031 -1.925781 8.472656 -1.523438 8.046875 -1.140625 C 7.628906 -0.753906 7.160156 -0.4375 6.640625 -0.1875 C 6.117188 0.0507812 5.535156 0.171875 4.890625 0.171875 Z M 2.03125 -6.15625 L 7.546875 -6.15625 C 7.492188 -6.5625 7.347656 -6.960938 7.109375 -7.359375 C 6.878906 -7.765625 6.566406 -8.097656 6.171875 -8.359375 C 5.785156 -8.628906 5.316406 -8.765625 4.765625 -8.765625 C 4.003906 -8.785156 3.390625 -8.539062 2.921875 -8.03125 C 2.460938 -7.53125 2.164062 -6.90625 2.03125 -6.15625 Z M 2.03125 -6.15625 "/></g></g></g><g fill="#61697b" fill-opacity="1"><g transform="translate(182.936762, 121.905475)"><g/></g></g><g fill="#61697b" fill-opacity="1"><g transform="translate(187.457532, 121.905475)"><g><path d="M 7.53125 0.171875 C 6.207031 0.171875 5.046875 -0.0859375 4.046875 -0.609375 C 3.054688 -1.140625 2.289062 -1.878906 1.75 -2.828125 C 1.207031 -3.773438 0.9375 -4.894531 0.9375 -6.1875 C 0.9375 -7.082031 1.09375 -7.925781 1.40625 -8.71875 C 1.726562 -9.507812 2.175781 -10.195312 2.75 -10.78125 C 3.332031 -11.375 4.023438 -11.835938 4.828125 -12.171875 C 5.628906 -12.515625 6.507812 -12.6875 7.46875 -12.6875 C 8 -12.6875 8.523438 -12.640625 9.046875 -12.546875 C 9.566406 -12.453125 10.039062 -12.332031 10.46875 -12.1875 C 10.90625 -12.050781 11.238281 -11.90625 11.46875 -11.75 L 11.53125 -9.625 L 11.359375 -9.59375 C 11.140625 -10.113281 10.8125 -10.582031 10.375 -11 C 9.945312 -11.414062 9.441406 -11.742188 8.859375 -11.984375 C 8.285156 -12.234375 7.644531 -12.359375 6.9375 -12.359375 C 6.082031 -12.359375 5.3125 -12.160156 4.625 -11.765625 C 3.945312 -11.378906 3.40625 -10.8125 3 -10.0625 C 2.601562 -9.3125 2.398438 -8.382812 2.390625 -7.28125 C 2.378906 -6.4375 2.5 -5.59375 2.75 -4.75 C 3 -3.914062 3.367188 -3.148438 3.859375 -2.453125 C 4.359375 -1.765625 4.957031 -1.210938 5.65625 -0.796875 C 6.363281 -0.378906 7.175781 -0.171875 8.09375 -0.171875 C 8.757812 -0.171875 9.359375 -0.328125 9.890625 -0.640625 C 10.429688 -0.960938 10.816406 -1.347656 11.046875 -1.796875 L 11.03125 -3.625 C 11.03125 -4.1875 10.972656 -4.59375 10.859375 -4.84375 C 10.742188 -5.09375 10.492188 -5.265625 10.109375 -5.359375 L 10.109375 -5.578125 L 12.46875 -5.578125 L 12.46875 -2.203125 C 12.125 -1.722656 11.675781 -1.300781 11.125 -0.9375 C 10.582031 -0.582031 10 -0.304688 9.375 -0.109375 C 8.757812 0.078125 8.144531 0.171875 7.53125 0.171875 Z M 7.53125 0.171875 "/></g></g></g><g fill="#61697b" fill-opacity="1"><g transform="translate(201.522148, 121.905475)"><g><path d="M 0.578125 0 L 0.578125 -0.234375 C 0.847656 -0.316406 1.035156 -0.492188 1.140625 -0.765625 C 1.242188 -1.046875 1.296875 -1.550781 1.296875 -2.28125 L 1.296875 -6.40625 C 1.296875 -6.820312 1.265625 -7.132812 1.203125 -7.34375 C 1.148438 -7.550781 1.070312 -7.703125 0.96875 -7.796875 C 0.875 -7.898438 0.742188 -7.984375 0.578125 -8.046875 L 0.578125 -8.25 L 2.53125 -9.109375 L 2.6875 -8.984375 L 2.6875 -6.75 C 2.832031 -7.09375 3.019531 -7.410156 3.25 -7.703125 C 3.488281 -8.003906 3.738281 -8.253906 4 -8.453125 C 4.269531 -8.648438 4.570312 -8.804688 4.90625 -8.921875 C 5.238281 -9.035156 5.617188 -9.09375 6.046875 -9.09375 C 6.398438 -9.09375 6.679688 -9.050781 6.890625 -8.96875 C 7.097656 -8.882812 7.203125 -8.765625 7.203125 -8.609375 C 7.203125 -8.421875 7.109375 -8.203125 6.921875 -7.953125 C 6.742188 -7.710938 6.492188 -7.59375 6.171875 -7.59375 C 5.929688 -7.59375 5.628906 -7.632812 5.265625 -7.71875 C 4.898438 -7.8125 4.453125 -7.9375 3.921875 -8.09375 C 3.753906 -7.96875 3.578125 -7.78125 3.390625 -7.53125 C 3.210938 -7.289062 3.0625 -7.019531 2.9375 -6.71875 C 2.8125 -6.425781 2.734375 -6.132812 2.703125 -5.84375 L 2.6875 -5.84375 L 2.6875 -2.28125 C 2.6875 -1.550781 2.738281 -1.046875 2.84375 -0.765625 C 2.945312 -0.492188 3.132812 -0.316406 3.40625 -0.234375 L 3.40625 0 Z M 0.578125 0 "/></g></g></g><g fill="#61697b" fill-opacity="1"><g transform="translate(209.810228, 121.905475)"><g><path d="M 4.890625 0.171875 C 4.398438 0.171875 3.90625 0.0820312 3.40625 -0.09375 C 2.90625 -0.269531 2.445312 -0.539062 2.03125 -0.90625 C 1.613281 -1.269531 1.273438 -1.726562 1.015625 -2.28125 C 0.765625 -2.832031 0.640625 -3.476562 0.640625 -4.21875 C 0.640625 -5.195312 0.859375 -6.050781 1.296875 -6.78125 C 1.734375 -7.507812 2.3125 -8.078125 3.03125 -8.484375 C 3.75 -8.890625 4.523438 -9.09375 5.359375 -9.09375 C 6.117188 -9.09375 6.765625 -8.945312 7.296875 -8.65625 C 7.828125 -8.363281 8.238281 -7.976562 8.53125 -7.5 C 8.820312 -7.019531 8.972656 -6.492188 8.984375 -5.921875 L 1.96875 -5.921875 C 1.9375 -5.660156 1.921875 -5.382812 1.921875 -5.09375 C 1.921875 -4.28125 2.078125 -3.554688 2.390625 -2.921875 C 2.710938 -2.296875 3.160156 -1.8125 3.734375 -1.46875 C 4.316406 -1.125 5 -0.953125 5.78125 -0.953125 C 6.46875 -0.953125 7.066406 -1.09375 7.578125 -1.375 C 8.097656 -1.664062 8.5625 -2.046875 8.96875 -2.515625 L 9.125 -2.34375 C 8.832031 -1.925781 8.472656 -1.523438 8.046875 -1.140625 C 7.628906 -0.753906 7.160156 -0.4375 6.640625 -0.1875 C 6.117188 0.0507812 5.535156 0.171875 4.890625 0.171875 Z M 2.03125 -6.15625 L 7.546875 -6.15625 C 7.492188 -6.5625 7.347656 -6.960938 7.109375 -7.359375 C 6.878906 -7.765625 6.566406 -8.097656 6.171875 -8.359375 C 5.785156 -8.628906 5.316406 -8.765625 4.765625 -8.765625 C 4.003906 -8.785156 3.390625 -8.539062 2.921875 -8.03125 C 2.460938 -7.53125 2.164062 -6.90625 2.03125 -6.15625 Z M 2.03125 -6.15625 "/></g></g></g><g fill="#61697b" fill-opacity="1"><g transform="translate(220.197229, 121.905475)"><g><path d="M 7.515625 0 C 7.160156 0 6.984375 -0.175781 6.984375 -0.53125 L 6.984375 -3.765625 C 6.796875 -3.035156 6.507812 -2.367188 6.125 -1.765625 C 5.75 -1.171875 5.304688 -0.695312 4.796875 -0.34375 C 4.285156 0 3.734375 0.171875 3.140625 0.171875 C 2.691406 0.171875 2.273438 0.0820312 1.890625 -0.09375 C 1.515625 -0.269531 1.207031 -0.53125 0.96875 -0.875 C 0.738281 -1.226562 0.625 -1.660156 0.625 -2.171875 C 0.625 -2.796875 0.804688 -3.300781 1.171875 -3.6875 C 1.546875 -4.082031 2.039062 -4.40625 2.65625 -4.65625 C 3.28125 -4.914062 3.941406 -5.140625 4.640625 -5.328125 L 6.984375 -5.953125 C 6.929688 -6.828125 6.6875 -7.46875 6.25 -7.875 C 5.820312 -8.289062 5.226562 -8.5 4.46875 -8.5 C 3.925781 -8.5 3.398438 -8.367188 2.890625 -8.109375 C 2.390625 -7.859375 1.910156 -7.457031 1.453125 -6.90625 L 1.296875 -7.046875 C 1.804688 -7.679688 2.382812 -8.179688 3.03125 -8.546875 C 3.6875 -8.910156 4.40625 -9.09375 5.1875 -9.09375 C 6.269531 -9.09375 7.066406 -8.804688 7.578125 -8.234375 C 8.097656 -7.671875 8.359375 -6.878906 8.359375 -5.859375 L 8.359375 -2.28125 C 8.359375 -1.550781 8.40625 -1.046875 8.5 -0.765625 C 8.601562 -0.492188 8.796875 -0.316406 9.078125 -0.234375 L 9.078125 0 Z M 1.96875 -2.671875 C 1.96875 -2.085938 2.144531 -1.640625 2.5 -1.328125 C 2.851562 -1.023438 3.285156 -0.875 3.796875 -0.875 C 4.273438 -0.875 4.707031 -1.007812 5.09375 -1.28125 C 5.488281 -1.550781 5.820312 -1.898438 6.09375 -2.328125 C 6.375 -2.765625 6.59375 -3.234375 6.75 -3.734375 C 6.90625 -4.234375 6.984375 -4.71875 6.984375 -5.1875 L 6.984375 -5.71875 L 4.71875 -5.109375 C 4.269531 -4.992188 3.832031 -4.835938 3.40625 -4.640625 C 2.988281 -4.441406 2.644531 -4.1875 2.375 -3.875 C 2.101562 -3.5625 1.96875 -3.160156 1.96875 -2.671875 Z M 1.96875 -2.671875 "/></g></g></g><g fill="#61697b" fill-opacity="1"><g transform="translate(230.458653, 121.905475)"><g><path d="M 3.390625 0.171875 C 2.828125 0.171875 2.382812 -0.0195312 2.0625 -0.40625 C 1.738281 -0.789062 1.578125 -1.453125 1.578125 -2.390625 L 1.578125 -8.71875 L 0.4375 -8.71875 L 0.4375 -8.96875 L 2.71875 -11.171875 L 2.984375 -11.171875 L 2.984375 -8.96875 L 5.703125 -8.96875 L 5.609375 -8.71875 L 2.984375 -8.71875 L 2.984375 -2.390625 C 2.984375 -1.773438 3.097656 -1.335938 3.328125 -1.078125 C 3.554688 -0.828125 3.863281 -0.703125 4.25 -0.703125 C 4.5 -0.703125 4.773438 -0.769531 5.078125 -0.90625 C 5.378906 -1.039062 5.675781 -1.28125 5.96875 -1.625 L 6.140625 -1.46875 C 5.753906 -1.03125 5.328125 -0.644531 4.859375 -0.3125 C 4.398438 0.0078125 3.910156 0.171875 3.390625 0.171875 Z M 3.390625 0.171875 "/></g></g></g><g fill="#61697b" fill-opacity="1"><g transform="translate(237.38332, 121.905475)"><g/></g></g><g fill="#61697b" fill-opacity="1"><g transform="translate(241.904078, 121.905475)"><g><path d="M 7.53125 0.171875 C 6.207031 0.171875 5.046875 -0.0859375 4.046875 -0.609375 C 3.054688 -1.140625 2.289062 -1.878906 1.75 -2.828125 C 1.207031 -3.773438 0.9375 -4.894531 0.9375 -6.1875 C 0.9375 -7.082031 1.09375 -7.925781 1.40625 -8.71875 C 1.726562 -9.507812 2.175781 -10.195312 2.75 -10.78125 C 3.332031 -11.375 4.023438 -11.835938 4.828125 -12.171875 C 5.628906 -12.515625 6.507812 -12.6875 7.46875 -12.6875 C 8 -12.6875 8.523438 -12.640625 9.046875 -12.546875 C 9.566406 -12.453125 10.039062 -12.332031 10.46875 -12.1875 C 10.90625 -12.050781 11.238281 -11.90625 11.46875 -11.75 L 11.53125 -9.625 L 11.359375 -9.59375 C 11.140625 -10.113281 10.8125 -10.582031 10.375 -11 C 9.945312 -11.414062 9.441406 -11.742188 8.859375 -11.984375 C 8.285156 -12.234375 7.644531 -12.359375 6.9375 -12.359375 C 6.082031 -12.359375 5.3125 -12.160156 4.625 -11.765625 C 3.945312 -11.378906 3.40625 -10.8125 3 -10.0625 C 2.601562 -9.3125 2.398438 -8.382812 2.390625 -7.28125 C 2.378906 -6.4375 2.5 -5.59375 2.75 -4.75 C 3 -3.914062 3.367188 -3.148438 3.859375 -2.453125 C 4.359375 -1.765625 4.957031 -1.210938 5.65625 -0.796875 C 6.363281 -0.378906 7.175781 -0.171875 8.09375 -0.171875 C 8.757812 -0.171875 9.359375 -0.328125 9.890625 -0.640625 C 10.429688 -0.960938 10.816406 -1.347656 11.046875 -1.796875 L 11.03125 -3.625 C 11.03125 -4.1875 10.972656 -4.59375 10.859375 -4.84375 C 10.742188 -5.09375 10.492188 -5.265625 10.109375 -5.359375 L 10.109375 -5.578125 L 12.46875 -5.578125 L 12.46875 -2.203125 C 12.125 -1.722656 11.675781 -1.300781 11.125 -0.9375 C 10.582031 -0.582031 10 -0.304688 9.375 -0.109375 C 8.757812 0.078125 8.144531 0.171875 7.53125 0.171875 Z M 7.53125 0.171875 "/></g></g></g><g fill="#61697b" fill-opacity="1"><g transform="translate(255.968682, 121.905475)"><g><path d="M 0.578125 0 L 0.578125 -0.234375 C 0.847656 -0.316406 1.035156 -0.492188 1.140625 -0.765625 C 1.242188 -1.046875 1.296875 -1.550781 1.296875 -2.28125 L 1.296875 -6.40625 C 1.296875 -6.820312 1.269531 -7.132812 1.21875 -7.34375 C 1.164062 -7.550781 1.085938 -7.703125 0.984375 -7.796875 C 0.878906 -7.898438 0.742188 -7.984375 0.578125 -8.046875 L 0.578125 -8.25 L 2.546875 -9.109375 L 2.6875 -8.984375 L 2.6875 -2.28125 C 2.6875 -1.550781 2.738281 -1.046875 2.84375 -0.765625 C 2.957031 -0.492188 3.144531 -0.316406 3.40625 -0.234375 L 3.40625 0 Z M 0.890625 -11.1875 C 0.890625 -11.476562 0.984375 -11.71875 1.171875 -11.90625 C 1.367188 -12.101562 1.609375 -12.203125 1.890625 -12.203125 C 2.171875 -12.203125 2.40625 -12.101562 2.59375 -11.90625 C 2.78125 -11.71875 2.875 -11.476562 2.875 -11.1875 C 2.875 -10.925781 2.773438 -10.695312 2.578125 -10.5 C 2.390625 -10.300781 2.160156 -10.203125 1.890625 -10.203125 C 1.609375 -10.203125 1.367188 -10.300781 1.171875 -10.5 C 0.984375 -10.695312 0.890625 -10.925781 0.890625 -11.1875 Z M 0.890625 -11.1875 "/></g></g></g><g fill="#61697b" fill-opacity="1"><g transform="translate(260.758547, 121.905475)"><g><path d="M 3.390625 0.171875 C 2.828125 0.171875 2.382812 -0.0195312 2.0625 -0.40625 C 1.738281 -0.789062 1.578125 -1.453125 1.578125 -2.390625 L 1.578125 -8.71875 L 0.4375 -8.71875 L 0.4375 -8.96875 L 2.71875 -11.171875 L 2.984375 -11.171875 L 2.984375 -8.96875 L 5.703125 -8.96875 L 5.609375 -8.71875 L 2.984375 -8.71875 L 2.984375 -2.390625 C 2.984375 -1.773438 3.097656 -1.335938 3.328125 -1.078125 C 3.554688 -0.828125 3.863281 -0.703125 4.25 -0.703125 C 4.5 -0.703125 4.773438 -0.769531 5.078125 -0.90625 C 5.378906 -1.039062 5.675781 -1.28125 5.96875 -1.625 L 6.140625 -1.46875 C 5.753906 -1.03125 5.328125 -0.644531 4.859375 -0.3125 C 4.398438 0.0078125 3.910156 0.171875 3.390625 0.171875 Z M 3.390625 0.171875 "/></g></g></g><g fill="#61697b" fill-opacity="1"><g transform="translate(267.683214, 121.905475)"><g><path d="M 0.9375 -4.359375 L 0.9375 -4.609375 L 5.609375 -4.609375 L 5.609375 -4.359375 Z M 0.9375 -4.359375 "/></g></g></g><g fill="#61697b" fill-opacity="1"><g transform="translate(274.984611, 121.905475)"><g><path d="M 3.5625 0 L 3.5625 -0.234375 C 3.84375 -0.316406 4.03125 -0.492188 4.125 -0.765625 C 4.226562 -1.046875 4.28125 -1.550781 4.28125 -2.28125 L 4.28125 -12.265625 L 3.40625 -12.265625 C 2.601562 -12.265625 1.992188 -12.140625 1.578125 -11.890625 C 1.160156 -11.640625 0.796875 -11.191406 0.484375 -10.546875 L 0.28125 -10.578125 L 0.390625 -12.5625 L 9.625 -12.5625 L 9.734375 -10.578125 L 9.546875 -10.546875 C 9.242188 -11.191406 8.882812 -11.640625 8.46875 -11.890625 C 8.050781 -12.140625 7.4375 -12.265625 6.625 -12.265625 L 5.78125 -12.265625 L 5.78125 -2.28125 C 5.78125 -1.550781 5.828125 -1.046875 5.921875 -0.765625 C 6.023438 -0.492188 6.21875 -0.316406 6.5 -0.234375 L 6.5 0 Z M 3.5625 0 "/></g></g></g><g fill="#61697b" fill-opacity="1"><g transform="translate(285.784223, 121.905475)"><g><path d="M 5.34375 0.171875 C 4.769531 0.171875 4.203125 0.0820312 3.640625 -0.09375 C 3.085938 -0.269531 2.582031 -0.539062 2.125 -0.90625 C 1.675781 -1.28125 1.316406 -1.753906 1.046875 -2.328125 C 0.773438 -2.898438 0.640625 -3.578125 0.640625 -4.359375 C 0.640625 -5.296875 0.859375 -6.117188 1.296875 -6.828125 C 1.742188 -7.535156 2.328125 -8.085938 3.046875 -8.484375 C 3.765625 -8.890625 4.53125 -9.09375 5.34375 -9.09375 C 5.90625 -9.09375 6.460938 -9.003906 7.015625 -8.828125 C 7.566406 -8.660156 8.066406 -8.390625 8.515625 -8.015625 C 8.972656 -7.648438 9.335938 -7.175781 9.609375 -6.59375 C 9.890625 -6.019531 10.03125 -5.332031 10.03125 -4.53125 C 10.03125 -3.769531 9.890625 -3.09375 9.609375 -2.5 C 9.328125 -1.914062 8.953125 -1.425781 8.484375 -1.03125 C 8.015625 -0.632812 7.503906 -0.332031 6.953125 -0.125 C 6.410156 0.0703125 5.875 0.171875 5.34375 0.171875 Z M 2.03125 -5.375 C 2.03125 -4.800781 2.117188 -4.210938 2.296875 -3.609375 C 2.472656 -3.003906 2.726562 -2.445312 3.0625 -1.9375 C 3.394531 -1.425781 3.796875 -1.007812 4.265625 -0.6875 C 4.742188 -0.363281 5.285156 -0.203125 5.890625 -0.203125 C 6.535156 -0.203125 7.0625 -0.351562 7.46875 -0.65625 C 7.875 -0.957031 8.171875 -1.359375 8.359375 -1.859375 C 8.554688 -2.367188 8.65625 -2.910156 8.65625 -3.484375 C 8.65625 -4.054688 8.5625 -4.65625 8.375 -5.28125 C 8.1875 -5.90625 7.914062 -6.488281 7.5625 -7.03125 C 7.207031 -7.570312 6.785156 -8.003906 6.296875 -8.328125 C 5.804688 -8.648438 5.269531 -8.789062 4.6875 -8.75 C 4.070312 -8.726562 3.566406 -8.5625 3.171875 -8.25 C 2.773438 -7.9375 2.484375 -7.53125 2.296875 -7.03125 C 2.117188 -6.53125 2.03125 -5.976562 2.03125 -5.375 Z M 2.03125 -5.375 "/></g></g></g><g fill="#61697b" fill-opacity="1"><g transform="translate(297.337295, 121.905475)"><g><path d="M 3.1875 4.96875 C 2.738281 4.96875 2.289062 4.894531 1.84375 4.75 C 1.394531 4.601562 1.019531 4.367188 0.71875 4.046875 C 0.414062 3.722656 0.265625 3.296875 0.265625 2.765625 C 0.265625 2.203125 0.476562 1.679688 0.90625 1.203125 C 1.332031 0.734375 1.910156 0.28125 2.640625 -0.15625 C 2.234375 -0.257812 1.910156 -0.414062 1.671875 -0.625 C 1.441406 -0.832031 1.328125 -1.125 1.328125 -1.5 C 1.328125 -1.84375 1.453125 -2.132812 1.703125 -2.375 C 1.960938 -2.625 2.273438 -2.859375 2.640625 -3.078125 C 2.191406 -3.316406 1.816406 -3.648438 1.515625 -4.078125 C 1.210938 -4.503906 1.0625 -5.046875 1.0625 -5.703125 C 1.0625 -6.335938 1.226562 -6.90625 1.5625 -7.40625 C 1.894531 -7.914062 2.332031 -8.320312 2.875 -8.625 C 3.414062 -8.9375 3.992188 -9.09375 4.609375 -9.09375 C 4.828125 -9.09375 5.046875 -9.078125 5.265625 -9.046875 C 5.492188 -9.015625 5.710938 -8.972656 5.921875 -8.921875 C 6.015625 -9.035156 6.113281 -9.148438 6.21875 -9.265625 C 6.320312 -9.378906 6.429688 -9.476562 6.546875 -9.5625 C 6.816406 -9.800781 7.117188 -9.992188 7.453125 -10.140625 C 7.785156 -10.296875 8.164062 -10.375 8.59375 -10.375 C 8.863281 -10.375 9.085938 -10.332031 9.265625 -10.25 C 9.441406 -10.175781 9.53125 -10.070312 9.53125 -9.9375 C 9.53125 -9.78125 9.4375 -9.585938 9.25 -9.359375 C 9.070312 -9.128906 8.820312 -9.015625 8.5 -9.015625 C 8.269531 -9.015625 8.019531 -9.050781 7.75 -9.125 C 7.476562 -9.207031 7.132812 -9.3125 6.71875 -9.4375 C 6.53125 -9.289062 6.34375 -9.085938 6.15625 -8.828125 C 6.707031 -8.628906 7.175781 -8.300781 7.5625 -7.84375 C 7.945312 -7.394531 8.140625 -6.785156 8.140625 -6.015625 C 8.140625 -5.492188 8.023438 -5.023438 7.796875 -4.609375 C 7.578125 -4.203125 7.285156 -3.847656 6.921875 -3.546875 C 6.566406 -3.253906 6.1875 -3.03125 5.78125 -2.875 C 5.375 -2.71875 4.984375 -2.640625 4.609375 -2.640625 C 4.335938 -2.640625 4.046875 -2.664062 3.734375 -2.71875 C 3.429688 -2.769531 3.144531 -2.859375 2.875 -2.984375 C 2.675781 -2.847656 2.515625 -2.722656 2.390625 -2.609375 C 2.273438 -2.492188 2.21875 -2.351562 2.21875 -2.1875 C 2.226562 -1.945312 2.390625 -1.753906 2.703125 -1.609375 C 3.015625 -1.472656 3.515625 -1.382812 4.203125 -1.34375 L 6.453125 -1.203125 C 7.066406 -1.160156 7.582031 -1.09375 8 -1 C 8.425781 -0.90625 8.753906 -0.738281 8.984375 -0.5 C 9.210938 -0.257812 9.328125 0.09375 9.328125 0.5625 C 9.328125 1.070312 9.148438 1.585938 8.796875 2.109375 C 8.441406 2.628906 7.960938 3.101562 7.359375 3.53125 C 6.765625 3.957031 6.109375 4.300781 5.390625 4.5625 C 4.671875 4.832031 3.9375 4.96875 3.1875 4.96875 Z M 1.46875 2.09375 C 1.46875 2.738281 1.710938 3.242188 2.203125 3.609375 C 2.703125 3.972656 3.375 4.15625 4.21875 4.15625 C 4.789062 4.15625 5.335938 4.070312 5.859375 3.90625 C 6.390625 3.75 6.863281 3.535156 7.28125 3.265625 C 7.695312 2.992188 8.023438 2.6875 8.265625 2.34375 C 8.503906 2.007812 8.625 1.664062 8.625 1.3125 C 8.625 0.894531 8.441406 0.601562 8.078125 0.4375 C 7.722656 0.28125 7.175781 0.175781 6.4375 0.125 L 3.921875 0 C 3.566406 -0.0195312 3.226562 -0.0546875 2.90625 -0.109375 C 2.394531 0.234375 2.023438 0.59375 1.796875 0.96875 C 1.578125 1.34375 1.46875 1.71875 1.46875 2.09375 Z M 2.375 -6.5 C 2.375 -6.101562 2.425781 -5.695312 2.53125 -5.28125 C 2.644531 -4.863281 2.8125 -4.476562 3.03125 -4.125 C 3.257812 -3.769531 3.535156 -3.476562 3.859375 -3.25 C 4.179688 -3.03125 4.546875 -2.921875 4.953125 -2.921875 C 5.617188 -2.921875 6.101562 -3.144531 6.40625 -3.59375 C 6.707031 -4.050781 6.859375 -4.585938 6.859375 -5.203125 C 6.859375 -5.609375 6.789062 -6.023438 6.65625 -6.453125 C 6.53125 -6.890625 6.351562 -7.289062 6.125 -7.65625 C 5.894531 -8.019531 5.613281 -8.3125 5.28125 -8.53125 C 4.957031 -8.75 4.585938 -8.847656 4.171875 -8.828125 C 3.546875 -8.804688 3.085938 -8.566406 2.796875 -8.109375 C 2.515625 -7.660156 2.375 -7.125 2.375 -6.5 Z M 2.375 -6.5 "/></g></g></g><g fill="#61697b" fill-opacity="1"><g transform="translate(307.473142, 121.905475)"><g><path d="M 4.890625 0.171875 C 4.398438 0.171875 3.90625 0.0820312 3.40625 -0.09375 C 2.90625 -0.269531 2.445312 -0.539062 2.03125 -0.90625 C 1.613281 -1.269531 1.273438 -1.726562 1.015625 -2.28125 C 0.765625 -2.832031 0.640625 -3.476562 0.640625 -4.21875 C 0.640625 -5.195312 0.859375 -6.050781 1.296875 -6.78125 C 1.734375 -7.507812 2.3125 -8.078125 3.03125 -8.484375 C 3.75 -8.890625 4.523438 -9.09375 5.359375 -9.09375 C 6.117188 -9.09375 6.765625 -8.945312 7.296875 -8.65625 C 7.828125 -8.363281 8.238281 -7.976562 8.53125 -7.5 C 8.820312 -7.019531 8.972656 -6.492188 8.984375 -5.921875 L 1.96875 -5.921875 C 1.9375 -5.660156 1.921875 -5.382812 1.921875 -5.09375 C 1.921875 -4.28125 2.078125 -3.554688 2.390625 -2.921875 C 2.710938 -2.296875 3.160156 -1.8125 3.734375 -1.46875 C 4.316406 -1.125 5 -0.953125 5.78125 -0.953125 C 6.46875 -0.953125 7.066406 -1.09375 7.578125 -1.375 C 8.097656 -1.664062 8.5625 -2.046875 8.96875 -2.515625 L 9.125 -2.34375 C 8.832031 -1.925781 8.472656 -1.523438 8.046875 -1.140625 C 7.628906 -0.753906 7.160156 -0.4375 6.640625 -0.1875 C 6.117188 0.0507812 5.535156 0.171875 4.890625 0.171875 Z M 2.03125 -6.15625 L 7.546875 -6.15625 C 7.492188 -6.5625 7.347656 -6.960938 7.109375 -7.359375 C 6.878906 -7.765625 6.566406 -8.097656 6.171875 -8.359375 C 5.785156 -8.628906 5.316406 -8.765625 4.765625 -8.765625 C 4.003906 -8.785156 3.390625 -8.539062 2.921875 -8.03125 C 2.460938 -7.53125 2.164062 -6.90625 2.03125 -6.15625 Z M 2.03125 -6.15625 "/></g></g></g><g fill="#61697b" fill-opacity="1"><g transform="translate(317.860143, 121.905475)"><g><path d="M 3.390625 0.171875 C 2.828125 0.171875 2.382812 -0.0195312 2.0625 -0.40625 C 1.738281 -0.789062 1.578125 -1.453125 1.578125 -2.390625 L 1.578125 -8.71875 L 0.4375 -8.71875 L 0.4375 -8.96875 L 2.71875 -11.171875 L 2.984375 -11.171875 L 2.984375 -8.96875 L 5.703125 -8.96875 L 5.609375 -8.71875 L 2.984375 -8.71875 L 2.984375 -2.390625 C 2.984375 -1.773438 3.097656 -1.335938 3.328125 -1.078125 C 3.554688 -0.828125 3.863281 -0.703125 4.25 -0.703125 C 4.5 -0.703125 4.773438 -0.769531 5.078125 -0.90625 C 5.378906 -1.039062 5.675781 -1.28125 5.96875 -1.625 L 6.140625 -1.46875 C 5.753906 -1.03125 5.328125 -0.644531 4.859375 -0.3125 C 4.398438 0.0078125 3.910156 0.171875 3.390625 0.171875 Z M 3.390625 0.171875 "/></g></g></g><g fill="#61697b" fill-opacity="1"><g transform="translate(324.78481, 121.905475)"><g><path d="M 0.484375 0 L 0.484375 -0.234375 C 0.753906 -0.316406 0.941406 -0.492188 1.046875 -0.765625 C 1.148438 -1.046875 1.203125 -1.550781 1.203125 -2.28125 L 1.203125 -11.78125 C 1.203125 -12.195312 1.175781 -12.507812 1.125 -12.71875 C 1.070312 -12.9375 0.992188 -13.09375 0.890625 -13.1875 C 0.785156 -13.28125 0.648438 -13.363281 0.484375 -13.4375 L 0.484375 -13.625 L 2.4375 -14.5 L 2.59375 -14.375 L 2.59375 -7.4375 C 3.125 -7.863281 3.71875 -8.242188 4.375 -8.578125 C 5.03125 -8.921875 5.707031 -9.09375 6.40625 -9.09375 C 7.289062 -9.09375 7.984375 -8.832031 8.484375 -8.3125 C 8.984375 -7.800781 9.234375 -7.019531 9.234375 -5.96875 L 9.234375 -2.28125 C 9.234375 -1.550781 9.285156 -1.046875 9.390625 -0.765625 C 9.492188 -0.492188 9.679688 -0.316406 9.953125 -0.234375 L 9.953125 0 L 7.125 0 L 7.125 -0.234375 C 7.394531 -0.316406 7.582031 -0.492188 7.6875 -0.765625 C 7.789062 -1.046875 7.84375 -1.550781 7.84375 -2.28125 L 7.84375 -5.609375 C 7.84375 -6.546875 7.644531 -7.257812 7.25 -7.75 C 6.851562 -8.25 6.257812 -8.5 5.46875 -8.5 C 4.976562 -8.5 4.488281 -8.367188 4 -8.109375 C 3.519531 -7.859375 3.050781 -7.539062 2.59375 -7.15625 L 2.59375 -2.28125 C 2.59375 -1.550781 2.644531 -1.046875 2.75 -0.765625 C 2.851562 -0.492188 3.039062 -0.316406 3.3125 -0.234375 L 3.3125 0 Z M 0.484375 0 "/></g></g></g><g fill="#61697b" fill-opacity="1"><g transform="translate(335.92527, 121.905475)"><g><path d="M 4.890625 0.171875 C 4.398438 0.171875 3.90625 0.0820312 3.40625 -0.09375 C 2.90625 -0.269531 2.445312 -0.539062 2.03125 -0.90625 C 1.613281 -1.269531 1.273438 -1.726562 1.015625 -2.28125 C 0.765625 -2.832031 0.640625 -3.476562 0.640625 -4.21875 C 0.640625 -5.195312 0.859375 -6.050781 1.296875 -6.78125 C 1.734375 -7.507812 2.3125 -8.078125 3.03125 -8.484375 C 3.75 -8.890625 4.523438 -9.09375 5.359375 -9.09375 C 6.117188 -9.09375 6.765625 -8.945312 7.296875 -8.65625 C 7.828125 -8.363281 8.238281 -7.976562 8.53125 -7.5 C 8.820312 -7.019531 8.972656 -6.492188 8.984375 -5.921875 L 1.96875 -5.921875 C 1.9375 -5.660156 1.921875 -5.382812 1.921875 -5.09375 C 1.921875 -4.28125 2.078125 -3.554688 2.390625 -2.921875 C 2.710938 -2.296875 3.160156 -1.8125 3.734375 -1.46875 C 4.316406 -1.125 5 -0.953125 5.78125 -0.953125 C 6.46875 -0.953125 7.066406 -1.09375 7.578125 -1.375 C 8.097656 -1.664062 8.5625 -2.046875 8.96875 -2.515625 L 9.125 -2.34375 C 8.832031 -1.925781 8.472656 -1.523438 8.046875 -1.140625 C 7.628906 -0.753906 7.160156 -0.4375 6.640625 -0.1875 C 6.117188 0.0507812 5.535156 0.171875 4.890625 0.171875 Z M 2.03125 -6.15625 L 7.546875 -6.15625 C 7.492188 -6.5625 7.347656 -6.960938 7.109375 -7.359375 C 6.878906 -7.765625 6.566406 -8.097656 6.171875 -8.359375 C 5.785156 -8.628906 5.316406 -8.765625 4.765625 -8.765625 C 4.003906 -8.785156 3.390625 -8.539062 2.921875 -8.03125 C 2.460938 -7.53125 2.164062 -6.90625 2.03125 -6.15625 Z M 2.03125 -6.15625 "/></g></g></g><g fill="#61697b" fill-opacity="1"><g transform="translate(346.31227, 121.905475)"><g><path d="M 0.578125 0 L 0.578125 -0.234375 C 0.847656 -0.316406 1.035156 -0.492188 1.140625 -0.765625 C 1.242188 -1.046875 1.296875 -1.550781 1.296875 -2.28125 L 1.296875 -6.40625 C 1.296875 -6.820312 1.265625 -7.132812 1.203125 -7.34375 C 1.148438 -7.550781 1.070312 -7.703125 0.96875 -7.796875 C 0.875 -7.898438 0.742188 -7.984375 0.578125 -8.046875 L 0.578125 -8.25 L 2.53125 -9.109375 L 2.6875 -8.984375 L 2.6875 -6.75 C 2.832031 -7.09375 3.019531 -7.410156 3.25 -7.703125 C 3.488281 -8.003906 3.738281 -8.253906 4 -8.453125 C 4.269531 -8.648438 4.570312 -8.804688 4.90625 -8.921875 C 5.238281 -9.035156 5.617188 -9.09375 6.046875 -9.09375 C 6.398438 -9.09375 6.679688 -9.050781 6.890625 -8.96875 C 7.097656 -8.882812 7.203125 -8.765625 7.203125 -8.609375 C 7.203125 -8.421875 7.109375 -8.203125 6.921875 -7.953125 C 6.742188 -7.710938 6.492188 -7.59375 6.171875 -7.59375 C 5.929688 -7.59375 5.628906 -7.632812 5.265625 -7.71875 C 4.898438 -7.8125 4.453125 -7.9375 3.921875 -8.09375 C 3.753906 -7.96875 3.578125 -7.78125 3.390625 -7.53125 C 3.210938 -7.289062 3.0625 -7.019531 2.9375 -6.71875 C 2.8125 -6.425781 2.734375 -6.132812 2.703125 -5.84375 L 2.6875 -5.84375 L 2.6875 -2.28125 C 2.6875 -1.550781 2.738281 -1.046875 2.84375 -0.765625 C 2.945312 -0.492188 3.132812 -0.316406 3.40625 -0.234375 L 3.40625 0 Z M 0.578125 0 "/></g></g></g><g fill="#61697b" fill-opacity="1"><g transform="translate(354.60035, 121.905475)"><g><path d="M 1.90625 -2.859375 L 1.09375 -11.46875 L 2.71875 -12.453125 L 2.828125 -12.375 L 2.109375 -2.859375 Z M 1.078125 -0.84375 C 1.078125 -1.101562 1.164062 -1.328125 1.34375 -1.515625 C 1.53125 -1.703125 1.753906 -1.796875 2.015625 -1.796875 C 2.265625 -1.796875 2.476562 -1.703125 2.65625 -1.515625 C 2.832031 -1.328125 2.921875 -1.101562 2.921875 -0.84375 C 2.921875 -0.582031 2.832031 -0.351562 2.65625 -0.15625 C 2.476562 0.03125 2.265625 0.125 2.015625 0.125 C 1.753906 0.125 1.53125 0.03125 1.34375 -0.15625 C 1.164062 -0.351562 1.078125 -0.582031 1.078125 -0.84375 Z M 1.078125 -0.84375 "/></g></g></g><g fill="#1a2d57" fill-opacity="1"><g transform="translate(27.785439, 84.963437)"><g><path d="M 30.734375 1.046875 C 25.972656 1.046875 21.867188 0.328125 18.421875 -1.109375 C 14.972656 -2.554688 12.128906 -4.53125 9.890625 -7.03125 C 7.660156 -9.53125 6.007812 -12.367188 4.9375 -15.546875 C 3.875 -18.722656 3.34375 -22.046875 3.34375 -25.515625 C 3.34375 -29.191406 3.9375 -32.675781 5.125 -35.96875 C 6.320312 -39.269531 8.070312 -42.195312 10.375 -44.75 C 12.6875 -47.3125 15.539062 -49.320312 18.9375 -50.78125 C 22.332031 -52.25 26.265625 -52.984375 30.734375 -52.984375 C 34.203125 -52.984375 37.609375 -52.335938 40.953125 -51.046875 C 44.304688 -49.753906 47.320312 -47.769531 50 -45.09375 L 44.796875 -39.734375 C 42.910156 -41.566406 40.703125 -42.953125 38.171875 -43.890625 C 35.640625 -44.835938 33.160156 -45.3125 30.734375 -45.3125 C 26.660156 -45.3125 23.1875 -44.414062 20.3125 -42.625 C 17.4375 -40.84375 15.253906 -38.460938 13.765625 -35.484375 C 12.273438 -32.515625 11.53125 -29.191406 11.53125 -25.515625 C 11.53125 -22.347656 12.1875 -19.335938 13.5 -16.484375 C 14.8125 -13.628906 16.878906 -11.296875 19.703125 -9.484375 C 22.535156 -7.671875 26.210938 -6.765625 30.734375 -6.765625 C 32.960938 -6.765625 35.117188 -7.097656 37.203125 -7.765625 C 39.285156 -8.441406 41.367188 -9.648438 43.453125 -11.390625 L 43.453125 -21.953125 L 28.9375 -21.953125 L 28.9375 -29.390625 L 51.1875 -29.390625 L 51.1875 -8.03125 C 48.5625 -5.15625 45.597656 -2.921875 42.296875 -1.328125 C 39.003906 0.253906 35.148438 1.046875 30.734375 1.046875 Z M 30.734375 1.046875 "/></g></g></g><g fill="#1a2d57" fill-opacity="1"><g transform="translate(83.071797, 84.963437)"><g><path d="M 9.078125 -42.703125 C 7.890625 -42.703125 6.796875 -43.097656 5.796875 -43.890625 C 4.804688 -44.691406 4.3125 -45.882812 4.3125 -47.46875 C 4.3125 -49.0625 4.804688 -50.238281 5.796875 -51 C 6.796875 -51.769531 7.890625 -52.15625 9.078125 -52.15625 C 10.265625 -52.15625 11.351562 -51.769531 12.34375 -51 C 13.34375 -50.238281 13.84375 -49.0625 13.84375 -47.46875 C 13.84375 -45.882812 13.34375 -44.691406 12.34375 -43.890625 C 11.351562 -43.097656 10.265625 -42.703125 9.078125 -42.703125 Z M 5.203125 0 L 5.203125 -36.75 L 12.875 -36.75 L 12.875 0 Z M 5.203125 0 "/></g></g></g><g fill="#1a2d57" fill-opacity="1"><g transform="translate(101.153337, 84.963437)"><g><path d="M 21.203125 0.453125 C 17.378906 0.453125 14.4375 -0.648438 12.375 -2.859375 C 10.320312 -5.066406 9.296875 -8.28125 9.296875 -12.5 L 9.296875 -30.140625 L 2.234375 -30.140625 L 2.234375 -36.75 L 9.296875 -36.75 L 9.296875 -46.421875 L 17.03125 -47.25 L 17.03125 -36.75 L 27.75 -36.75 L 27.75 -30.140625 L 16.96875 -30.140625 L 16.96875 -12.5 C 16.96875 -8.476562 18.726562 -6.46875 22.25 -6.46875 C 23.832031 -6.46875 25.394531 -6.890625 26.9375 -7.734375 L 29.171875 -1.1875 C 27.773438 -0.59375 26.457031 -0.171875 25.21875 0.078125 C 23.976562 0.328125 22.640625 0.453125 21.203125 0.453125 Z M 21.203125 0.453125 "/></g></g></g><g fill="#1a2d57" fill-opacity="1"><g transform="translate(131.438061, 84.963437)"><g><path d="M 6.546875 0 L 6.546875 -52.078125 L 30.796875 -52.078125 C 34.816406 -52.078125 38.191406 -51.269531 40.921875 -49.65625 C 43.648438 -48.050781 45.707031 -45.945312 47.09375 -43.34375 C 48.488281 -40.738281 49.1875 -37.972656 49.1875 -35.046875 C 49.1875 -32.617188 48.722656 -30.25 47.796875 -27.9375 C 46.878906 -25.632812 45.378906 -23.660156 43.296875 -22.015625 C 41.210938 -20.378906 38.460938 -19.316406 35.046875 -18.828125 L 50.59375 -1.484375 L 51.484375 0 L 41.734375 0 L 25.890625 -18 L 14.875 -18 L 14.875 0 Z M 14.875 -25.59375 L 30.734375 -25.59375 C 34.148438 -25.59375 36.664062 -26.519531 38.28125 -28.375 C 39.894531 -30.238281 40.703125 -32.410156 40.703125 -34.890625 C 40.703125 -36.484375 40.351562 -38 39.65625 -39.4375 C 38.957031 -40.875 37.878906 -42.0625 36.421875 -43 C 34.960938 -43.945312 33.085938 -44.421875 30.796875 -44.421875 L 14.875 -44.421875 Z M 14.875 -25.59375 "/></g></g></g><g fill="#1a2d57" fill-opacity="1"><g transform="translate(185.087406, 84.963437)"><g><path d="M 22.765625 1.046875 C 18.742188 1.046875 15.257812 0.238281 12.3125 -1.375 C 9.363281 -2.988281 7.066406 -5.242188 5.421875 -8.140625 C 3.785156 -11.046875 2.96875 -14.457031 2.96875 -18.375 C 2.96875 -22.09375 3.773438 -25.390625 5.390625 -28.265625 C 7.003906 -31.148438 9.257812 -33.410156 12.15625 -35.046875 C 15.0625 -36.679688 18.425781 -37.5 22.25 -37.5 C 25.914062 -37.5 29.140625 -36.800781 31.921875 -35.40625 C 34.703125 -34.019531 36.882812 -31.925781 38.46875 -29.125 C 40.050781 -26.320312 40.84375 -22.8125 40.84375 -18.59375 C 40.84375 -18.101562 40.832031 -17.570312 40.8125 -17 C 40.789062 -16.425781 40.753906 -15.867188 40.703125 -15.328125 L 10.9375 -15.328125 C 11.28125 -12.503906 12.519531 -10.257812 14.65625 -8.59375 C 16.789062 -6.925781 19.546875 -6.09375 22.921875 -6.09375 C 24.804688 -6.09375 26.765625 -6.425781 28.796875 -7.09375 C 30.828125 -7.769531 32.414062 -8.753906 33.5625 -10.046875 L 38.546875 -5.203125 C 36.660156 -3.078125 34.265625 -1.503906 31.359375 -0.484375 C 28.460938 0.535156 25.597656 1.046875 22.765625 1.046875 Z M 11.09375 -21.796875 L 33.328125 -21.796875 C 33.085938 -24.722656 32 -26.929688 30.0625 -28.421875 C 28.125 -29.910156 25.59375 -30.65625 22.46875 -30.65625 C 19.644531 -30.65625 17.191406 -29.910156 15.109375 -28.421875 C 13.023438 -26.929688 11.6875 -24.722656 11.09375 -21.796875 Z M 11.09375 -21.796875 "/></g></g></g><g fill="#1a2d57" fill-opacity="1"><g transform="translate(228.393812, 84.963437)"><g><path d="M 22.328125 1.046875 C 18.796875 1.046875 15.566406 0.328125 12.640625 -1.109375 C 9.722656 -2.554688 7.378906 -4.71875 5.609375 -7.59375 C 3.847656 -10.46875 2.96875 -14.015625 2.96875 -18.234375 C 2.96875 -22.492188 3.835938 -26.050781 5.578125 -28.90625 C 7.316406 -31.757812 9.660156 -33.90625 12.609375 -35.34375 C 15.554688 -36.78125 18.796875 -37.5 22.328125 -37.5 C 24.847656 -37.5 27.1875 -37.078125 29.34375 -36.234375 C 31.507812 -35.390625 33.582031 -34 35.5625 -32.0625 L 30.734375 -27.078125 C 29.535156 -28.117188 28.203125 -28.898438 26.734375 -29.421875 C 25.273438 -29.941406 23.828125 -30.203125 22.390625 -30.203125 C 20.210938 -30.203125 18.226562 -29.707031 16.4375 -28.71875 C 14.65625 -27.726562 13.242188 -26.335938 12.203125 -24.546875 C 11.160156 -22.765625 10.640625 -20.660156 10.640625 -18.234375 C 10.640625 -15.648438 11.171875 -13.476562 12.234375 -11.71875 C 13.304688 -9.957031 14.734375 -8.628906 16.515625 -7.734375 C 18.304688 -6.847656 20.242188 -6.40625 22.328125 -6.40625 C 23.910156 -6.40625 25.457031 -6.664062 26.96875 -7.1875 C 28.476562 -7.707031 29.832031 -8.585938 31.03125 -9.828125 L 36.234375 -4.6875 C 34.148438 -2.65625 31.976562 -1.191406 29.71875 -0.296875 C 27.46875 0.597656 25.003906 1.046875 22.328125 1.046875 Z M 22.328125 1.046875 "/></g></g></g><g fill="#1a2d57" fill-opacity="1"><g transform="translate(266.268315, 84.963437)"><g><path d="M 51.859375 2.828125 L 45.46875 -3.421875 C 41.34375 -0.492188 36.179688 0.96875 29.984375 0.96875 C 25.367188 0.96875 21.382812 0.210938 18.03125 -1.296875 C 14.6875 -2.816406 11.921875 -4.851562 9.734375 -7.40625 C 7.554688 -9.957031 5.9375 -12.84375 4.875 -16.0625 C 3.8125 -19.289062 3.28125 -22.617188 3.28125 -26.046875 C 3.28125 -29.460938 3.820312 -32.769531 4.90625 -35.96875 C 6 -39.175781 7.648438 -42.054688 9.859375 -44.609375 C 12.066406 -47.160156 14.84375 -49.191406 18.1875 -50.703125 C 21.539062 -52.222656 25.472656 -52.984375 29.984375 -52.984375 C 34.546875 -52.984375 38.5 -52.222656 41.84375 -50.703125 C 45.195312 -49.191406 47.960938 -47.160156 50.140625 -44.609375 C 52.328125 -42.054688 53.941406 -39.164062 54.984375 -35.9375 C 56.023438 -32.71875 56.546875 -29.421875 56.546875 -26.046875 C 56.546875 -23.015625 56.125 -20.046875 55.28125 -17.140625 C 54.4375 -14.242188 53.148438 -11.601562 51.421875 -9.21875 L 57.671875 -3.046875 Z M 29.984375 -6.765625 C 33.054688 -6.765625 35.742188 -7.3125 38.046875 -8.40625 C 40.359375 -9.5 42.269531 -10.972656 43.78125 -12.828125 C 45.300781 -14.691406 46.429688 -16.773438 47.171875 -19.078125 C 47.921875 -21.390625 48.296875 -23.734375 48.296875 -26.109375 C 48.296875 -28.492188 47.945312 -30.828125 47.25 -33.109375 C 46.550781 -35.390625 45.46875 -37.445312 44 -39.28125 C 42.539062 -41.125 40.65625 -42.601562 38.34375 -43.71875 C 36.039062 -44.832031 33.253906 -45.390625 29.984375 -45.390625 C 26.859375 -45.390625 24.140625 -44.84375 21.828125 -43.75 C 19.523438 -42.65625 17.601562 -41.175781 16.0625 -39.3125 C 14.53125 -37.457031 13.390625 -35.363281 12.640625 -33.03125 C 11.898438 -30.707031 11.53125 -28.328125 11.53125 -25.890625 C 11.53125 -23.515625 11.914062 -21.179688 12.6875 -18.890625 C 13.457031 -16.609375 14.609375 -14.5625 16.140625 -12.75 C 17.679688 -10.945312 19.601562 -9.5 21.90625 -8.40625 C 24.21875 -7.3125 26.910156 -6.765625 29.984375 -6.765625 Z M 29.984375 -6.765625 "/></g></g></g><g fill="#1a2d57" fill-opacity="1"><g transform="translate(326.242479, 84.963437)"><g><path d="M 20.09375 0.890625 C 17.113281 0.890625 14.457031 0.195312 12.125 -1.1875 C 9.789062 -2.582031 7.953125 -4.59375 6.609375 -7.21875 C 5.273438 -9.84375 4.609375 -12.992188 4.609375 -16.671875 L 4.609375 -36.75 L 12.28125 -36.75 L 12.28125 -16.734375 C 12.28125 -13.609375 13.132812 -11.066406 14.84375 -9.109375 C 16.550781 -7.148438 19.019531 -6.171875 22.25 -6.171875 C 24.28125 -6.171875 26.050781 -6.664062 27.5625 -7.65625 C 29.082031 -8.65625 30.273438 -10 31.140625 -11.6875 C 32.003906 -13.375 32.4375 -15.234375 32.4375 -17.265625 L 32.4375 -36.75 L 40.109375 -36.75 L 40.109375 0.078125 L 33.1875 0.078125 L 32.734375 -5.0625 C 30.953125 -2.976562 29.039062 -1.460938 27 -0.515625 C 24.96875 0.421875 22.664062 0.890625 20.09375 0.890625 Z M 20.09375 0.890625 "/></g></g></g><g fill="#1a2d57" fill-opacity="1"><g transform="translate(371.557939, 84.963437)"><g><path d="M 22.765625 1.046875 C 18.742188 1.046875 15.257812 0.238281 12.3125 -1.375 C 9.363281 -2.988281 7.066406 -5.242188 5.421875 -8.140625 C 3.785156 -11.046875 2.96875 -14.457031 2.96875 -18.375 C 2.96875 -22.09375 3.773438 -25.390625 5.390625 -28.265625 C 7.003906 -31.148438 9.257812 -33.410156 12.15625 -35.046875 C 15.0625 -36.679688 18.425781 -37.5 22.25 -37.5 C 25.914062 -37.5 29.140625 -36.800781 31.921875 -35.40625 C 34.703125 -34.019531 36.882812 -31.925781 38.46875 -29.125 C 40.050781 -26.320312 40.84375 -22.8125 40.84375 -18.59375 C 40.84375 -18.101562 40.832031 -17.570312 40.8125 -17 C 40.789062 -16.425781 40.753906 -15.867188 40.703125 -15.328125 L 10.9375 -15.328125 C 11.28125 -12.503906 12.519531 -10.257812 14.65625 -8.59375 C 16.789062 -6.925781 19.546875 -6.09375 22.921875 -6.09375 C 24.804688 -6.09375 26.765625 -6.425781 28.796875 -7.09375 C 30.828125 -7.769531 32.414062 -8.753906 33.5625 -10.046875 L 38.546875 -5.203125 C 36.660156 -3.078125 34.265625 -1.503906 31.359375 -0.484375 C 28.460938 0.535156 25.597656 1.046875 22.765625 1.046875 Z M 11.09375 -21.796875 L 33.328125 -21.796875 C 33.085938 -24.722656 32 -26.929688 30.0625 -28.421875 C 28.125 -29.910156 25.59375 -30.65625 22.46875 -30.65625 C 19.644531 -30.65625 17.191406 -29.910156 15.109375 -28.421875 C 13.023438 -26.929688 11.6875 -24.722656 11.09375 -21.796875 Z M 11.09375 -21.796875 "/></g></g></g><g fill="#1a2d57" fill-opacity="1"><g transform="translate(414.864333, 84.963437)"><g><path d="M 19.046875 1.046875 C 16.066406 1.046875 13.140625 0.597656 10.265625 -0.296875 C 7.390625 -1.191406 4.738281 -3.003906 2.3125 -5.734375 L 6.328125 -11.15625 C 8.054688 -9.269531 10.085938 -7.894531 12.421875 -7.03125 C 14.753906 -6.164062 17.015625 -5.734375 19.203125 -5.734375 C 20.390625 -5.734375 21.585938 -5.894531 22.796875 -6.21875 C 24.015625 -6.539062 25.019531 -7.0625 25.8125 -7.78125 C 26.613281 -8.5 27.015625 -9.425781 27.015625 -10.5625 C 27.015625 -12.15625 26.269531 -13.3125 24.78125 -14.03125 C 23.289062 -14.75 21.207031 -15.226562 18.53125 -15.46875 C 16.84375 -15.625 15.117188 -15.910156 13.359375 -16.328125 C 11.597656 -16.753906 9.972656 -17.375 8.484375 -18.1875 C 6.992188 -19.007812 5.800781 -20.101562 4.90625 -21.46875 C 4.019531 -22.832031 3.578125 -24.503906 3.578125 -26.484375 C 3.578125 -28.523438 4.035156 -30.238281 4.953125 -31.625 C 5.867188 -33.007812 7.09375 -34.132812 8.625 -35 C 10.164062 -35.875 11.828125 -36.507812 13.609375 -36.90625 C 15.398438 -37.300781 17.140625 -37.5 18.828125 -37.5 C 21.648438 -37.5 24.191406 -37.140625 26.453125 -36.421875 C 28.710938 -35.703125 30.882812 -34.453125 32.96875 -32.671875 L 28.640625 -27.609375 C 27.160156 -28.992188 25.597656 -29.910156 23.953125 -30.359375 C 22.316406 -30.804688 20.554688 -31.03125 18.671875 -31.03125 C 16.390625 -31.03125 14.566406 -30.65625 13.203125 -29.90625 C 11.835938 -29.164062 11.15625 -28.101562 11.15625 -26.71875 C 11.15625 -25.175781 11.882812 -24.082031 13.34375 -23.4375 C 14.8125 -22.789062 16.738281 -22.320312 19.125 -22.03125 C 20.8125 -21.832031 22.554688 -21.554688 24.359375 -21.203125 C 26.171875 -20.859375 27.859375 -20.300781 29.421875 -19.53125 C 30.984375 -18.757812 32.25 -17.65625 33.21875 -16.21875 C 34.1875 -14.78125 34.671875 -12.867188 34.671875 -10.484375 C 34.671875 -7.117188 33.242188 -4.351562 30.390625 -2.1875 C 27.535156 -0.03125 23.753906 1.046875 19.046875 1.046875 Z M 19.046875 1.046875 "/></g></g></g><g fill="#1a2d57" fill-opacity="1"><g transform="translate(451.994729, 84.963437)"><g><path d="M 21.203125 0.453125 C 17.378906 0.453125 14.4375 -0.648438 12.375 -2.859375 C 10.320312 -5.066406 9.296875 -8.28125 9.296875 -12.5 L 9.296875 -30.140625 L 2.234375 -30.140625 L 2.234375 -36.75 L 9.296875 -36.75 L 9.296875 -46.421875 L 17.03125 -47.25 L 17.03125 -36.75 L 27.75 -36.75 L 27.75 -30.140625 L 16.96875 -30.140625 L 16.96875 -12.5 C 16.96875 -8.476562 18.726562 -6.46875 22.25 -6.46875 C 23.832031 -6.46875 25.394531 -6.890625 26.9375 -7.734375 L 29.171875 -1.1875 C 27.773438 -0.59375 26.457031 -0.171875 25.21875 0.078125 C 23.976562 0.328125 22.640625 0.453125 21.203125 0.453125 Z M 21.203125 0.453125 "/></g></g></g><g fill="#1a2d57" fill-opacity="1"><g transform="translate(402.560566, 121.292364)"><g><path d="M 4.84375 0 L 0.375 -10.484375 L 2.796875 -10.484375 L 4.203125 -7.03125 L 6.046875 -2.296875 L 7.703125 -6.609375 L 9.28125 -10.484375 L 11.671875 -10.484375 L 7.234375 0 Z M 4.84375 0 "/></g></g></g><g fill="#1a2d57" fill-opacity="1"><g transform="translate(414.614394, 121.292364)"><g><path d="M 2.59375 0.1875 C 2.25 0.1875 1.9375 0.0703125 1.65625 -0.15625 C 1.375 -0.394531 1.234375 -0.734375 1.234375 -1.171875 C 1.234375 -1.617188 1.375 -1.953125 1.65625 -2.171875 C 1.9375 -2.390625 2.25 -2.5 2.59375 -2.5 C 2.914062 -2.5 3.21875 -2.390625 3.5 -2.171875 C 3.78125 -1.953125 3.921875 -1.617188 3.921875 -1.171875 C 3.921875 -0.734375 3.78125 -0.394531 3.5 -0.15625 C 3.21875 0.0703125 2.914062 0.1875 2.59375 0.1875 Z M 2.59375 0.1875 "/></g></g></g><g fill="#1a2d57" fill-opacity="1"><g transform="translate(419.771225, 121.292364)"><g><path d="M 1.078125 0 L 1.078125 -1.96875 L 3.765625 -1.96875 L 3.765625 -11.953125 L 1.203125 -11.234375 L 1.203125 -13.3125 L 6.109375 -14.859375 L 6.109375 -1.96875 L 8.703125 -1.96875 L 8.703125 0 Z M 1.078125 0 "/></g></g></g><g fill="#1a2d57" fill-opacity="1"><g transform="translate(429.002589, 121.292364)"><g><path d="M 2.59375 0.1875 C 2.25 0.1875 1.9375 0.0703125 1.65625 -0.15625 C 1.375 -0.394531 1.234375 -0.734375 1.234375 -1.171875 C 1.234375 -1.617188 1.375 -1.953125 1.65625 -2.171875 C 1.9375 -2.390625 2.25 -2.5 2.59375 -2.5 C 2.914062 -2.5 3.21875 -2.390625 3.5 -2.171875 C 3.78125 -1.953125 3.921875 -1.617188 3.921875 -1.171875 C 3.921875 -0.734375 3.78125 -0.394531 3.5 -0.15625 C 3.21875 0.0703125 2.914062 0.1875 2.59375 0.1875 Z M 2.59375 0.1875 "/></g></g></g><g fill="#1a2d57" fill-opacity="1"><g transform="translate(434.15942, 121.292364)"><g><path d="M 7.4375 0.296875 C 6.65625 0.296875 5.890625 0.160156 5.140625 -0.109375 C 4.398438 -0.378906 3.734375 -0.78125 3.140625 -1.3125 C 2.546875 -1.84375 2.070312 -2.503906 1.71875 -3.296875 C 1.375 -4.097656 1.203125 -5.035156 1.203125 -6.109375 L 1.203125 -8.703125 C 1.203125 -9.773438 1.375 -10.710938 1.71875 -11.515625 C 2.070312 -12.316406 2.546875 -12.984375 3.140625 -13.515625 C 3.734375 -14.046875 4.398438 -14.445312 5.140625 -14.71875 C 5.890625 -14.988281 6.65625 -15.125 7.4375 -15.125 C 8.207031 -15.125 8.960938 -14.988281 9.703125 -14.71875 C 10.441406 -14.445312 11.109375 -14.046875 11.703125 -13.515625 C 12.296875 -12.984375 12.769531 -12.316406 13.125 -11.515625 C 13.476562 -10.710938 13.65625 -9.773438 13.65625 -8.703125 L 13.65625 -6.109375 C 13.65625 -5.035156 13.476562 -4.097656 13.125 -3.296875 C 12.769531 -2.503906 12.296875 -1.84375 11.703125 -1.3125 C 11.109375 -0.78125 10.441406 -0.378906 9.703125 -0.109375 C 8.960938 0.160156 8.207031 0.296875 7.4375 0.296875 Z M 7.4375 -1.90625 C 8.082031 -1.90625 8.695312 -2.0625 9.28125 -2.375 C 9.863281 -2.6875 10.34375 -3.15625 10.71875 -3.78125 C 11.09375 -4.40625 11.28125 -5.179688 11.28125 -6.109375 L 11.28125 -8.703125 C 11.28125 -9.628906 11.09375 -10.398438 10.71875 -11.015625 C 10.34375 -11.628906 9.859375 -12.085938 9.265625 -12.390625 C 8.679688 -12.691406 8.0625 -12.84375 7.40625 -12.84375 C 6.769531 -12.84375 6.15625 -12.691406 5.5625 -12.390625 C 4.976562 -12.085938 4.503906 -11.628906 4.140625 -11.015625 C 3.773438 -10.410156 3.59375 -9.640625 3.59375 -8.703125 L 3.59375 -6.109375 C 3.59375 -5.179688 3.78125 -4.40625 4.15625 -3.78125 C 4.53125 -3.15625 5.007812 -2.6875 5.59375 -2.375 C 6.175781 -2.0625 6.789062 -1.90625 7.4375 -1.90625 Z M 7.4375 -1.90625 "/></g></g></g><g fill="#1a2d57" fill-opacity="1"><g transform="translate(449.014496, 121.292364)"><g><path d="M 2.59375 0.1875 C 2.25 0.1875 1.9375 0.0703125 1.65625 -0.15625 C 1.375 -0.394531 1.234375 -0.734375 1.234375 -1.171875 C 1.234375 -1.617188 1.375 -1.953125 1.65625 -2.171875 C 1.9375 -2.390625 2.25 -2.5 2.59375 -2.5 C 2.914062 -2.5 3.21875 -2.390625 3.5 -2.171875 C 3.78125 -1.953125 3.921875 -1.617188 3.921875 -1.171875 C 3.921875 -0.734375 3.78125 -0.394531 3.5 -0.15625 C 3.21875 0.0703125 2.914062 0.1875 2.59375 0.1875 Z M 2.59375 0.1875 "/></g></g></g><g fill="#1a2d57" fill-opacity="1"><g transform="translate(454.171327, 121.292364)"><g><path d="M 7.4375 0.296875 C 6.65625 0.296875 5.890625 0.160156 5.140625 -0.109375 C 4.398438 -0.378906 3.734375 -0.78125 3.140625 -1.3125 C 2.546875 -1.84375 2.070312 -2.503906 1.71875 -3.296875 C 1.375 -4.097656 1.203125 -5.035156 1.203125 -6.109375 L 1.203125 -8.703125 C 1.203125 -9.773438 1.375 -10.710938 1.71875 -11.515625 C 2.070312 -12.316406 2.546875 -12.984375 3.140625 -13.515625 C 3.734375 -14.046875 4.398438 -14.445312 5.140625 -14.71875 C 5.890625 -14.988281 6.65625 -15.125 7.4375 -15.125 C 8.207031 -15.125 8.960938 -14.988281 9.703125 -14.71875 C 10.441406 -14.445312 11.109375 -14.046875 11.703125 -13.515625 C 12.296875 -12.984375 12.769531 -12.316406 13.125 -11.515625 C 13.476562 -10.710938 13.65625 -9.773438 13.65625 -8.703125 L 13.65625 -6.109375 C 13.65625 -5.035156 13.476562 -4.097656 13.125 -3.296875 C 12.769531 -2.503906 12.296875 -1.84375 11.703125 -1.3125 C 11.109375 -0.78125 10.441406 -0.378906 9.703125 -0.109375 C 8.960938 0.160156 8.207031 0.296875 7.4375 0.296875 Z M 7.4375 -1.90625 C 8.082031 -1.90625 8.695312 -2.0625 9.28125 -2.375 C 9.863281 -2.6875 10.34375 -3.15625 10.71875 -3.78125 C 11.09375 -4.40625 11.28125 -5.179688 11.28125 -6.109375 L 11.28125 -8.703125 C 11.28125 -9.628906 11.09375 -10.398438 10.71875 -11.015625 C 10.34375 -11.628906 9.859375 -12.085938 9.265625 -12.390625 C 8.679688 -12.691406 8.0625 -12.84375 7.40625 -12.84375 C 6.769531 -12.84375 6.15625 -12.691406 5.5625 -12.390625 C 4.976562 -12.085938 4.503906 -11.628906 4.140625 -11.015625 C 3.773438 -10.410156 3.59375 -9.640625 3.59375 -8.703125 L 3.59375 -6.109375 C 3.59375 -5.179688 3.78125 -4.40625 4.15625 -3.78125 C 4.53125 -3.15625 5.007812 -2.6875 5.59375 -2.375 C 6.175781 -2.0625 6.789062 -1.90625 7.4375 -1.90625 Z M 7.4375 -1.90625 "/></g></g></g></svg>